G04 PROTEUS RS274X GERBER FILE*
%FSLAX45Y45*%
%MOMM*%
G01*
%ADD10C,0.908000*%
%ADD11C,0.304800*%
%ADD12C,0.508000*%
%ADD13R,0.889000X1.016000*%
%ADD14R,2.032000X3.810000*%
%ADD15C,0.203200*%
G36*
X-330000Y+7523500D02*
X-484261Y+7523500D01*
X-484261Y+7941139D01*
X-540461Y+7941139D01*
X-540461Y+8325637D01*
X-720461Y+8505637D01*
X-720461Y+8631942D01*
X-736481Y+8705139D01*
X-737431Y+8706089D01*
X-737431Y+8760939D01*
X-907609Y+8760939D01*
X-907609Y+8706089D01*
X-908559Y+8705139D01*
X-908559Y+8633861D01*
X-907609Y+8631912D01*
X-907609Y+8578061D01*
X-892539Y+8578061D01*
X-892539Y+8434363D01*
X-712539Y+8254363D01*
X-712539Y+7941139D01*
X-790461Y+7941139D01*
X-790461Y+8175637D01*
X-920461Y+8305637D01*
X-920461Y+8622065D01*
X-924441Y+8705139D01*
X-925391Y+8706089D01*
X-925391Y+8760939D01*
X-1095569Y+8760939D01*
X-1095569Y+8706089D01*
X-1096519Y+8705139D01*
X-1096519Y+8633861D01*
X-1095569Y+8628961D01*
X-1095569Y+8578061D01*
X-1092539Y+8578061D01*
X-1092539Y+8234363D01*
X-962539Y+8104363D01*
X-962539Y+7941139D01*
X-1278739Y+7941139D01*
X-1278739Y+7523500D01*
X-1473000Y+7523500D01*
X-1473000Y+9010000D01*
X-330000Y+9010000D01*
X-330000Y+7523500D01*
G37*
%LPC*%
G36*
X-831411Y+8768561D02*
X-1001589Y+8768561D01*
X-1001589Y+8951439D01*
X-831411Y+8951439D01*
X-831411Y+8768561D01*
G37*
%LPD*%
G36*
X+1164261Y+7530000D02*
X+1010000Y+7530000D01*
X+1010000Y+7947639D01*
X+953800Y+7947639D01*
X+953800Y+8332137D01*
X+773800Y+8512137D01*
X+773800Y+8638442D01*
X+757780Y+8711639D01*
X+756830Y+8712589D01*
X+756830Y+8767439D01*
X+586652Y+8767439D01*
X+586652Y+8712589D01*
X+585702Y+8711639D01*
X+585702Y+8640361D01*
X+586652Y+8638412D01*
X+586652Y+8584561D01*
X+601722Y+8584561D01*
X+601722Y+8440863D01*
X+781722Y+8260863D01*
X+781722Y+7947639D01*
X+703800Y+7947639D01*
X+703800Y+8182137D01*
X+573800Y+8312137D01*
X+573800Y+8628565D01*
X+569820Y+8711639D01*
X+568870Y+8712589D01*
X+568870Y+8767439D01*
X+398692Y+8767439D01*
X+398692Y+8712589D01*
X+397742Y+8711639D01*
X+397742Y+8640361D01*
X+398692Y+8635461D01*
X+398692Y+8584561D01*
X+401722Y+8584561D01*
X+401722Y+8240863D01*
X+531722Y+8110863D01*
X+531722Y+7947639D01*
X+215522Y+7947639D01*
X+215522Y+7530000D01*
X+21261Y+7530000D01*
X+21261Y+9016500D01*
X+1164261Y+9016500D01*
X+1164261Y+7530000D01*
G37*
%LPC*%
G36*
X+662850Y+8775061D02*
X+492672Y+8775061D01*
X+492672Y+8957939D01*
X+662850Y+8957939D01*
X+662850Y+8775061D01*
G37*
%LPD*%
G36*
X+2640000Y+7533500D02*
X+2485739Y+7533500D01*
X+2485739Y+7951139D01*
X+2429539Y+7951139D01*
X+2429539Y+8335637D01*
X+2249539Y+8515637D01*
X+2249539Y+8641942D01*
X+2233519Y+8715139D01*
X+2232569Y+8716089D01*
X+2232569Y+8770939D01*
X+2062391Y+8770939D01*
X+2062391Y+8716089D01*
X+2061441Y+8715139D01*
X+2061441Y+8643861D01*
X+2062391Y+8641912D01*
X+2062391Y+8588061D01*
X+2077461Y+8588061D01*
X+2077461Y+8444363D01*
X+2257461Y+8264363D01*
X+2257461Y+7951139D01*
X+2179539Y+7951139D01*
X+2179539Y+8185637D01*
X+2049539Y+8315637D01*
X+2049539Y+8632065D01*
X+2045559Y+8715139D01*
X+2044609Y+8716089D01*
X+2044609Y+8770939D01*
X+1874431Y+8770939D01*
X+1874431Y+8716089D01*
X+1873481Y+8715139D01*
X+1873481Y+8643861D01*
X+1874431Y+8638961D01*
X+1874431Y+8588061D01*
X+1877461Y+8588061D01*
X+1877461Y+8244363D01*
X+2007461Y+8114363D01*
X+2007461Y+7951139D01*
X+1691261Y+7951139D01*
X+1691261Y+7533500D01*
X+1497000Y+7533500D01*
X+1497000Y+9020000D01*
X+2640000Y+9020000D01*
X+2640000Y+7533500D01*
G37*
%LPC*%
G36*
X+2138589Y+8778561D02*
X+1968411Y+8778561D01*
X+1968411Y+8961439D01*
X+2138589Y+8961439D01*
X+2138589Y+8778561D01*
G37*
%LPD*%
G36*
X+4134261Y+7540000D02*
X+3980000Y+7540000D01*
X+3980000Y+7957639D01*
X+3923800Y+7957639D01*
X+3923800Y+8342137D01*
X+3743800Y+8522137D01*
X+3743800Y+8648442D01*
X+3727780Y+8721639D01*
X+3726830Y+8722589D01*
X+3726830Y+8777439D01*
X+3556652Y+8777439D01*
X+3556652Y+8722589D01*
X+3555702Y+8721639D01*
X+3555702Y+8650361D01*
X+3556652Y+8648412D01*
X+3556652Y+8594561D01*
X+3571722Y+8594561D01*
X+3571722Y+8450863D01*
X+3751722Y+8270863D01*
X+3751722Y+7957639D01*
X+3673800Y+7957639D01*
X+3673800Y+8192137D01*
X+3543800Y+8322137D01*
X+3543800Y+8638565D01*
X+3539820Y+8721639D01*
X+3538870Y+8722589D01*
X+3538870Y+8777439D01*
X+3368692Y+8777439D01*
X+3368692Y+8722589D01*
X+3367742Y+8721639D01*
X+3367742Y+8650361D01*
X+3368692Y+8645461D01*
X+3368692Y+8594561D01*
X+3371722Y+8594561D01*
X+3371722Y+8250863D01*
X+3501722Y+8120863D01*
X+3501722Y+7957639D01*
X+3185522Y+7957639D01*
X+3185522Y+7540000D01*
X+2991261Y+7540000D01*
X+2991261Y+9026500D01*
X+4134261Y+9026500D01*
X+4134261Y+7540000D01*
G37*
%LPC*%
G36*
X+3632850Y+8785061D02*
X+3462672Y+8785061D01*
X+3462672Y+8967939D01*
X+3632850Y+8967939D01*
X+3632850Y+8785061D01*
G37*
%LPD*%
G36*
X+5574261Y+7530000D02*
X+5420000Y+7530000D01*
X+5420000Y+7947639D01*
X+5363800Y+7947639D01*
X+5363800Y+8332137D01*
X+5183800Y+8512137D01*
X+5183800Y+8638442D01*
X+5167780Y+8711639D01*
X+5166830Y+8712589D01*
X+5166830Y+8767439D01*
X+4996652Y+8767439D01*
X+4996652Y+8712589D01*
X+4995702Y+8711639D01*
X+4995702Y+8640361D01*
X+4996652Y+8638412D01*
X+4996652Y+8584561D01*
X+5011722Y+8584561D01*
X+5011722Y+8440863D01*
X+5191722Y+8260863D01*
X+5191722Y+7947639D01*
X+5113800Y+7947639D01*
X+5113800Y+8182137D01*
X+4983800Y+8312137D01*
X+4983800Y+8628565D01*
X+4979820Y+8711639D01*
X+4978870Y+8712589D01*
X+4978870Y+8767439D01*
X+4808692Y+8767439D01*
X+4808692Y+8712589D01*
X+4807742Y+8711639D01*
X+4807742Y+8640361D01*
X+4808692Y+8635461D01*
X+4808692Y+8584561D01*
X+4811722Y+8584561D01*
X+4811722Y+8240863D01*
X+4941722Y+8110863D01*
X+4941722Y+7947639D01*
X+4625522Y+7947639D01*
X+4625522Y+7530000D01*
X+4431261Y+7530000D01*
X+4431261Y+9016500D01*
X+5574261Y+9016500D01*
X+5574261Y+7530000D01*
G37*
%LPC*%
G36*
X+5072850Y+8775061D02*
X+4902672Y+8775061D01*
X+4902672Y+8957939D01*
X+5072850Y+8957939D01*
X+5072850Y+8775061D01*
G37*
%LPD*%
G36*
X-330000Y+5623500D02*
X-484261Y+5623500D01*
X-484261Y+6041139D01*
X-540461Y+6041139D01*
X-540461Y+6425637D01*
X-720461Y+6605637D01*
X-720461Y+6731942D01*
X-736481Y+6805139D01*
X-737431Y+6806089D01*
X-737431Y+6860939D01*
X-907609Y+6860939D01*
X-907609Y+6806089D01*
X-908559Y+6805139D01*
X-908559Y+6733861D01*
X-907609Y+6731912D01*
X-907609Y+6678061D01*
X-892539Y+6678061D01*
X-892539Y+6534363D01*
X-712539Y+6354363D01*
X-712539Y+6041139D01*
X-790461Y+6041139D01*
X-790461Y+6275637D01*
X-920461Y+6405637D01*
X-920461Y+6722065D01*
X-924441Y+6805139D01*
X-925391Y+6806089D01*
X-925391Y+6860939D01*
X-1095569Y+6860939D01*
X-1095569Y+6806089D01*
X-1096519Y+6805139D01*
X-1096519Y+6733861D01*
X-1095569Y+6728961D01*
X-1095569Y+6678061D01*
X-1092539Y+6678061D01*
X-1092539Y+6334363D01*
X-962539Y+6204363D01*
X-962539Y+6041139D01*
X-1278739Y+6041139D01*
X-1278739Y+5623500D01*
X-1473000Y+5623500D01*
X-1473000Y+7110000D01*
X-330000Y+7110000D01*
X-330000Y+5623500D01*
G37*
%LPC*%
G36*
X-831411Y+6868561D02*
X-1001589Y+6868561D01*
X-1001589Y+7051439D01*
X-831411Y+7051439D01*
X-831411Y+6868561D01*
G37*
%LPD*%
G36*
X+1164261Y+5630000D02*
X+1010000Y+5630000D01*
X+1010000Y+6047639D01*
X+953800Y+6047639D01*
X+953800Y+6432137D01*
X+773800Y+6612137D01*
X+773800Y+6738442D01*
X+757780Y+6811639D01*
X+756830Y+6812589D01*
X+756830Y+6867439D01*
X+586652Y+6867439D01*
X+586652Y+6812589D01*
X+585702Y+6811639D01*
X+585702Y+6740361D01*
X+586652Y+6738412D01*
X+586652Y+6684561D01*
X+601722Y+6684561D01*
X+601722Y+6540863D01*
X+781722Y+6360863D01*
X+781722Y+6047639D01*
X+703800Y+6047639D01*
X+703800Y+6282137D01*
X+573800Y+6412137D01*
X+573800Y+6728565D01*
X+569820Y+6811639D01*
X+568870Y+6812589D01*
X+568870Y+6867439D01*
X+398692Y+6867439D01*
X+398692Y+6812589D01*
X+397742Y+6811639D01*
X+397742Y+6740361D01*
X+398692Y+6735461D01*
X+398692Y+6684561D01*
X+401722Y+6684561D01*
X+401722Y+6340863D01*
X+531722Y+6210863D01*
X+531722Y+6047639D01*
X+215522Y+6047639D01*
X+215522Y+5630000D01*
X+21261Y+5630000D01*
X+21261Y+7116500D01*
X+1164261Y+7116500D01*
X+1164261Y+5630000D01*
G37*
%LPC*%
G36*
X+662850Y+6875061D02*
X+492672Y+6875061D01*
X+492672Y+7057939D01*
X+662850Y+7057939D01*
X+662850Y+6875061D01*
G37*
%LPD*%
G36*
X+2640000Y+5633500D02*
X+2485739Y+5633500D01*
X+2485739Y+6051139D01*
X+2429539Y+6051139D01*
X+2429539Y+6435637D01*
X+2249539Y+6615637D01*
X+2249539Y+6741942D01*
X+2233519Y+6815139D01*
X+2232569Y+6816089D01*
X+2232569Y+6870939D01*
X+2062391Y+6870939D01*
X+2062391Y+6816089D01*
X+2061441Y+6815139D01*
X+2061441Y+6743861D01*
X+2062391Y+6741912D01*
X+2062391Y+6688061D01*
X+2077461Y+6688061D01*
X+2077461Y+6544363D01*
X+2257461Y+6364363D01*
X+2257461Y+6051139D01*
X+2179539Y+6051139D01*
X+2179539Y+6285637D01*
X+2049539Y+6415637D01*
X+2049539Y+6732065D01*
X+2045559Y+6815139D01*
X+2044609Y+6816089D01*
X+2044609Y+6870939D01*
X+1874431Y+6870939D01*
X+1874431Y+6816089D01*
X+1873481Y+6815139D01*
X+1873481Y+6743861D01*
X+1874431Y+6738961D01*
X+1874431Y+6688061D01*
X+1877461Y+6688061D01*
X+1877461Y+6344363D01*
X+2007461Y+6214363D01*
X+2007461Y+6051139D01*
X+1691261Y+6051139D01*
X+1691261Y+5633500D01*
X+1497000Y+5633500D01*
X+1497000Y+7120000D01*
X+2640000Y+7120000D01*
X+2640000Y+5633500D01*
G37*
%LPC*%
G36*
X+2138589Y+6878561D02*
X+1968411Y+6878561D01*
X+1968411Y+7061439D01*
X+2138589Y+7061439D01*
X+2138589Y+6878561D01*
G37*
%LPD*%
G36*
X+4134261Y+5640000D02*
X+3980000Y+5640000D01*
X+3980000Y+6057639D01*
X+3923800Y+6057639D01*
X+3923800Y+6442137D01*
X+3743800Y+6622137D01*
X+3743800Y+6748442D01*
X+3727780Y+6821639D01*
X+3726830Y+6822589D01*
X+3726830Y+6877439D01*
X+3556652Y+6877439D01*
X+3556652Y+6822589D01*
X+3555702Y+6821639D01*
X+3555702Y+6750361D01*
X+3556652Y+6748412D01*
X+3556652Y+6694561D01*
X+3571722Y+6694561D01*
X+3571722Y+6550863D01*
X+3751722Y+6370863D01*
X+3751722Y+6057639D01*
X+3673800Y+6057639D01*
X+3673800Y+6292137D01*
X+3543800Y+6422137D01*
X+3543800Y+6738565D01*
X+3539820Y+6821639D01*
X+3538870Y+6822589D01*
X+3538870Y+6877439D01*
X+3368692Y+6877439D01*
X+3368692Y+6822589D01*
X+3367742Y+6821639D01*
X+3367742Y+6750361D01*
X+3368692Y+6745461D01*
X+3368692Y+6694561D01*
X+3371722Y+6694561D01*
X+3371722Y+6350863D01*
X+3501722Y+6220863D01*
X+3501722Y+6057639D01*
X+3185522Y+6057639D01*
X+3185522Y+5640000D01*
X+2991261Y+5640000D01*
X+2991261Y+7126500D01*
X+4134261Y+7126500D01*
X+4134261Y+5640000D01*
G37*
%LPC*%
G36*
X+3632850Y+6885061D02*
X+3462672Y+6885061D01*
X+3462672Y+7067939D01*
X+3632850Y+7067939D01*
X+3632850Y+6885061D01*
G37*
%LPD*%
G36*
X+5574261Y+5630000D02*
X+5420000Y+5630000D01*
X+5420000Y+6047639D01*
X+5363800Y+6047639D01*
X+5363800Y+6432137D01*
X+5183800Y+6612137D01*
X+5183800Y+6738442D01*
X+5167780Y+6811639D01*
X+5166830Y+6812589D01*
X+5166830Y+6867439D01*
X+4996652Y+6867439D01*
X+4996652Y+6812589D01*
X+4995702Y+6811639D01*
X+4995702Y+6740361D01*
X+4996652Y+6738412D01*
X+4996652Y+6684561D01*
X+5011722Y+6684561D01*
X+5011722Y+6540863D01*
X+5191722Y+6360863D01*
X+5191722Y+6047639D01*
X+5113800Y+6047639D01*
X+5113800Y+6282137D01*
X+4983800Y+6412137D01*
X+4983800Y+6728565D01*
X+4979820Y+6811639D01*
X+4978870Y+6812589D01*
X+4978870Y+6867439D01*
X+4808692Y+6867439D01*
X+4808692Y+6812589D01*
X+4807742Y+6811639D01*
X+4807742Y+6740361D01*
X+4808692Y+6735461D01*
X+4808692Y+6684561D01*
X+4811722Y+6684561D01*
X+4811722Y+6340863D01*
X+4941722Y+6210863D01*
X+4941722Y+6047639D01*
X+4625522Y+6047639D01*
X+4625522Y+5630000D01*
X+4431261Y+5630000D01*
X+4431261Y+7116500D01*
X+5574261Y+7116500D01*
X+5574261Y+5630000D01*
G37*
%LPC*%
G36*
X+5072850Y+6875061D02*
X+4902672Y+6875061D01*
X+4902672Y+7057939D01*
X+5072850Y+7057939D01*
X+5072850Y+6875061D01*
G37*
%LPD*%
G36*
X-350000Y+3713500D02*
X-504261Y+3713500D01*
X-504261Y+4131139D01*
X-560461Y+4131139D01*
X-560461Y+4515637D01*
X-740461Y+4695637D01*
X-740461Y+4821942D01*
X-756481Y+4895139D01*
X-757431Y+4896089D01*
X-757431Y+4950939D01*
X-927609Y+4950939D01*
X-927609Y+4896089D01*
X-928559Y+4895139D01*
X-928559Y+4823861D01*
X-927609Y+4821912D01*
X-927609Y+4768061D01*
X-912539Y+4768061D01*
X-912539Y+4624363D01*
X-732539Y+4444363D01*
X-732539Y+4131139D01*
X-810461Y+4131139D01*
X-810461Y+4365637D01*
X-940461Y+4495637D01*
X-940461Y+4812065D01*
X-944441Y+4895139D01*
X-945391Y+4896089D01*
X-945391Y+4950939D01*
X-1115569Y+4950939D01*
X-1115569Y+4896089D01*
X-1116519Y+4895139D01*
X-1116519Y+4823861D01*
X-1115569Y+4818961D01*
X-1115569Y+4768061D01*
X-1112539Y+4768061D01*
X-1112539Y+4424363D01*
X-982539Y+4294363D01*
X-982539Y+4131139D01*
X-1298739Y+4131139D01*
X-1298739Y+3713500D01*
X-1493000Y+3713500D01*
X-1493000Y+5200000D01*
X-350000Y+5200000D01*
X-350000Y+3713500D01*
G37*
%LPC*%
G36*
X-851411Y+4958561D02*
X-1021589Y+4958561D01*
X-1021589Y+5141439D01*
X-851411Y+5141439D01*
X-851411Y+4958561D01*
G37*
%LPD*%
G36*
X+1144261Y+3720000D02*
X+990000Y+3720000D01*
X+990000Y+4137639D01*
X+933800Y+4137639D01*
X+933800Y+4522137D01*
X+753800Y+4702137D01*
X+753800Y+4828442D01*
X+737780Y+4901639D01*
X+736830Y+4902589D01*
X+736830Y+4957439D01*
X+566652Y+4957439D01*
X+566652Y+4902589D01*
X+565702Y+4901639D01*
X+565702Y+4830361D01*
X+566652Y+4828412D01*
X+566652Y+4774561D01*
X+581722Y+4774561D01*
X+581722Y+4630863D01*
X+761722Y+4450863D01*
X+761722Y+4137639D01*
X+683800Y+4137639D01*
X+683800Y+4372137D01*
X+553800Y+4502137D01*
X+553800Y+4818565D01*
X+549820Y+4901639D01*
X+548870Y+4902589D01*
X+548870Y+4957439D01*
X+378692Y+4957439D01*
X+378692Y+4902589D01*
X+377742Y+4901639D01*
X+377742Y+4830361D01*
X+378692Y+4825461D01*
X+378692Y+4774561D01*
X+381722Y+4774561D01*
X+381722Y+4430863D01*
X+511722Y+4300863D01*
X+511722Y+4137639D01*
X+195522Y+4137639D01*
X+195522Y+3720000D01*
X+1261Y+3720000D01*
X+1261Y+5206500D01*
X+1144261Y+5206500D01*
X+1144261Y+3720000D01*
G37*
%LPC*%
G36*
X+642850Y+4965061D02*
X+472672Y+4965061D01*
X+472672Y+5147939D01*
X+642850Y+5147939D01*
X+642850Y+4965061D01*
G37*
%LPD*%
G36*
X+2620000Y+3723500D02*
X+2465739Y+3723500D01*
X+2465739Y+4141139D01*
X+2409539Y+4141139D01*
X+2409539Y+4525637D01*
X+2229539Y+4705637D01*
X+2229539Y+4831942D01*
X+2213519Y+4905139D01*
X+2212569Y+4906089D01*
X+2212569Y+4960939D01*
X+2042391Y+4960939D01*
X+2042391Y+4906089D01*
X+2041441Y+4905139D01*
X+2041441Y+4833861D01*
X+2042391Y+4831912D01*
X+2042391Y+4778061D01*
X+2057461Y+4778061D01*
X+2057461Y+4634363D01*
X+2237461Y+4454363D01*
X+2237461Y+4141139D01*
X+2159539Y+4141139D01*
X+2159539Y+4375637D01*
X+2029539Y+4505637D01*
X+2029539Y+4822065D01*
X+2025559Y+4905139D01*
X+2024609Y+4906089D01*
X+2024609Y+4960939D01*
X+1854431Y+4960939D01*
X+1854431Y+4906089D01*
X+1853481Y+4905139D01*
X+1853481Y+4833861D01*
X+1854431Y+4828961D01*
X+1854431Y+4778061D01*
X+1857461Y+4778061D01*
X+1857461Y+4434363D01*
X+1987461Y+4304363D01*
X+1987461Y+4141139D01*
X+1671261Y+4141139D01*
X+1671261Y+3723500D01*
X+1477000Y+3723500D01*
X+1477000Y+5210000D01*
X+2620000Y+5210000D01*
X+2620000Y+3723500D01*
G37*
%LPC*%
G36*
X+2118589Y+4968561D02*
X+1948411Y+4968561D01*
X+1948411Y+5151439D01*
X+2118589Y+5151439D01*
X+2118589Y+4968561D01*
G37*
%LPD*%
G36*
X+4114261Y+3730000D02*
X+3960000Y+3730000D01*
X+3960000Y+4147639D01*
X+3903800Y+4147639D01*
X+3903800Y+4532137D01*
X+3723800Y+4712137D01*
X+3723800Y+4838442D01*
X+3707780Y+4911639D01*
X+3706830Y+4912589D01*
X+3706830Y+4967439D01*
X+3536652Y+4967439D01*
X+3536652Y+4912589D01*
X+3535702Y+4911639D01*
X+3535702Y+4840361D01*
X+3536652Y+4838412D01*
X+3536652Y+4784561D01*
X+3551722Y+4784561D01*
X+3551722Y+4640863D01*
X+3731722Y+4460863D01*
X+3731722Y+4147639D01*
X+3653800Y+4147639D01*
X+3653800Y+4382137D01*
X+3523800Y+4512137D01*
X+3523800Y+4828565D01*
X+3519820Y+4911639D01*
X+3518870Y+4912589D01*
X+3518870Y+4967439D01*
X+3348692Y+4967439D01*
X+3348692Y+4912589D01*
X+3347742Y+4911639D01*
X+3347742Y+4840361D01*
X+3348692Y+4835461D01*
X+3348692Y+4784561D01*
X+3351722Y+4784561D01*
X+3351722Y+4440863D01*
X+3481722Y+4310863D01*
X+3481722Y+4147639D01*
X+3165522Y+4147639D01*
X+3165522Y+3730000D01*
X+2971261Y+3730000D01*
X+2971261Y+5216500D01*
X+4114261Y+5216500D01*
X+4114261Y+3730000D01*
G37*
%LPC*%
G36*
X+3612850Y+4975061D02*
X+3442672Y+4975061D01*
X+3442672Y+5157939D01*
X+3612850Y+5157939D01*
X+3612850Y+4975061D01*
G37*
%LPD*%
G36*
X+5554261Y+3720000D02*
X+5400000Y+3720000D01*
X+5400000Y+4137639D01*
X+5343800Y+4137639D01*
X+5343800Y+4522137D01*
X+5163800Y+4702137D01*
X+5163800Y+4828442D01*
X+5147780Y+4901639D01*
X+5146830Y+4902589D01*
X+5146830Y+4957439D01*
X+4976652Y+4957439D01*
X+4976652Y+4902589D01*
X+4975702Y+4901639D01*
X+4975702Y+4830361D01*
X+4976652Y+4828412D01*
X+4976652Y+4774561D01*
X+4991722Y+4774561D01*
X+4991722Y+4630863D01*
X+5171722Y+4450863D01*
X+5171722Y+4137639D01*
X+5093800Y+4137639D01*
X+5093800Y+4372137D01*
X+4963800Y+4502137D01*
X+4963800Y+4818565D01*
X+4959820Y+4901639D01*
X+4958870Y+4902589D01*
X+4958870Y+4957439D01*
X+4788692Y+4957439D01*
X+4788692Y+4902589D01*
X+4787742Y+4901639D01*
X+4787742Y+4830361D01*
X+4788692Y+4825461D01*
X+4788692Y+4774561D01*
X+4791722Y+4774561D01*
X+4791722Y+4430863D01*
X+4921722Y+4300863D01*
X+4921722Y+4137639D01*
X+4605522Y+4137639D01*
X+4605522Y+3720000D01*
X+4411261Y+3720000D01*
X+4411261Y+5206500D01*
X+5554261Y+5206500D01*
X+5554261Y+3720000D01*
G37*
%LPC*%
G36*
X+5052850Y+4965061D02*
X+4882672Y+4965061D01*
X+4882672Y+5147939D01*
X+5052850Y+5147939D01*
X+5052850Y+4965061D01*
G37*
%LPD*%
G36*
X-340000Y+1793500D02*
X-494261Y+1793500D01*
X-494261Y+2211139D01*
X-550461Y+2211139D01*
X-550461Y+2595637D01*
X-730461Y+2775637D01*
X-730461Y+2901942D01*
X-746481Y+2975139D01*
X-747431Y+2976089D01*
X-747431Y+3030939D01*
X-917609Y+3030939D01*
X-917609Y+2976089D01*
X-918559Y+2975139D01*
X-918559Y+2903861D01*
X-917609Y+2901912D01*
X-917609Y+2848061D01*
X-902539Y+2848061D01*
X-902539Y+2704363D01*
X-722539Y+2524363D01*
X-722539Y+2211139D01*
X-800461Y+2211139D01*
X-800461Y+2445637D01*
X-930461Y+2575637D01*
X-930461Y+2892065D01*
X-934441Y+2975139D01*
X-935391Y+2976089D01*
X-935391Y+3030939D01*
X-1105569Y+3030939D01*
X-1105569Y+2976089D01*
X-1106519Y+2975139D01*
X-1106519Y+2903861D01*
X-1105569Y+2898961D01*
X-1105569Y+2848061D01*
X-1102539Y+2848061D01*
X-1102539Y+2504363D01*
X-972539Y+2374363D01*
X-972539Y+2211139D01*
X-1288739Y+2211139D01*
X-1288739Y+1793500D01*
X-1483000Y+1793500D01*
X-1483000Y+3280000D01*
X-340000Y+3280000D01*
X-340000Y+1793500D01*
G37*
%LPC*%
G36*
X-841411Y+3038561D02*
X-1011589Y+3038561D01*
X-1011589Y+3221439D01*
X-841411Y+3221439D01*
X-841411Y+3038561D01*
G37*
%LPD*%
G36*
X+1154261Y+1800000D02*
X+1000000Y+1800000D01*
X+1000000Y+2217639D01*
X+943800Y+2217639D01*
X+943800Y+2602137D01*
X+763800Y+2782137D01*
X+763800Y+2908442D01*
X+747780Y+2981639D01*
X+746830Y+2982589D01*
X+746830Y+3037439D01*
X+576652Y+3037439D01*
X+576652Y+2982589D01*
X+575702Y+2981639D01*
X+575702Y+2910361D01*
X+576652Y+2908412D01*
X+576652Y+2854561D01*
X+591722Y+2854561D01*
X+591722Y+2710863D01*
X+771722Y+2530863D01*
X+771722Y+2217639D01*
X+693800Y+2217639D01*
X+693800Y+2452137D01*
X+563800Y+2582137D01*
X+563800Y+2898565D01*
X+559820Y+2981639D01*
X+558870Y+2982589D01*
X+558870Y+3037439D01*
X+388692Y+3037439D01*
X+388692Y+2982589D01*
X+387742Y+2981639D01*
X+387742Y+2910361D01*
X+388692Y+2905461D01*
X+388692Y+2854561D01*
X+391722Y+2854561D01*
X+391722Y+2510863D01*
X+521722Y+2380863D01*
X+521722Y+2217639D01*
X+205522Y+2217639D01*
X+205522Y+1800000D01*
X+11261Y+1800000D01*
X+11261Y+3286500D01*
X+1154261Y+3286500D01*
X+1154261Y+1800000D01*
G37*
%LPC*%
G36*
X+652850Y+3045061D02*
X+482672Y+3045061D01*
X+482672Y+3227939D01*
X+652850Y+3227939D01*
X+652850Y+3045061D01*
G37*
%LPD*%
G36*
X+2630000Y+1803500D02*
X+2475739Y+1803500D01*
X+2475739Y+2221139D01*
X+2419539Y+2221139D01*
X+2419539Y+2605637D01*
X+2239539Y+2785637D01*
X+2239539Y+2911942D01*
X+2223519Y+2985139D01*
X+2222569Y+2986089D01*
X+2222569Y+3040939D01*
X+2052391Y+3040939D01*
X+2052391Y+2986089D01*
X+2051441Y+2985139D01*
X+2051441Y+2913861D01*
X+2052391Y+2911912D01*
X+2052391Y+2858061D01*
X+2067461Y+2858061D01*
X+2067461Y+2714363D01*
X+2247461Y+2534363D01*
X+2247461Y+2221139D01*
X+2169539Y+2221139D01*
X+2169539Y+2455637D01*
X+2039539Y+2585637D01*
X+2039539Y+2902065D01*
X+2035559Y+2985139D01*
X+2034609Y+2986089D01*
X+2034609Y+3040939D01*
X+1864431Y+3040939D01*
X+1864431Y+2986089D01*
X+1863481Y+2985139D01*
X+1863481Y+2913861D01*
X+1864431Y+2908961D01*
X+1864431Y+2858061D01*
X+1867461Y+2858061D01*
X+1867461Y+2514363D01*
X+1997461Y+2384363D01*
X+1997461Y+2221139D01*
X+1681261Y+2221139D01*
X+1681261Y+1803500D01*
X+1487000Y+1803500D01*
X+1487000Y+3290000D01*
X+2630000Y+3290000D01*
X+2630000Y+1803500D01*
G37*
%LPC*%
G36*
X+2128589Y+3048561D02*
X+1958411Y+3048561D01*
X+1958411Y+3231439D01*
X+2128589Y+3231439D01*
X+2128589Y+3048561D01*
G37*
%LPD*%
G36*
X+4124261Y+1810000D02*
X+3970000Y+1810000D01*
X+3970000Y+2227639D01*
X+3913800Y+2227639D01*
X+3913800Y+2612137D01*
X+3733800Y+2792137D01*
X+3733800Y+2918442D01*
X+3717780Y+2991639D01*
X+3716830Y+2992589D01*
X+3716830Y+3047439D01*
X+3546652Y+3047439D01*
X+3546652Y+2992589D01*
X+3545702Y+2991639D01*
X+3545702Y+2920361D01*
X+3546652Y+2918412D01*
X+3546652Y+2864561D01*
X+3561722Y+2864561D01*
X+3561722Y+2720863D01*
X+3741722Y+2540863D01*
X+3741722Y+2227639D01*
X+3663800Y+2227639D01*
X+3663800Y+2462137D01*
X+3533800Y+2592137D01*
X+3533800Y+2908565D01*
X+3529820Y+2991639D01*
X+3528870Y+2992589D01*
X+3528870Y+3047439D01*
X+3358692Y+3047439D01*
X+3358692Y+2992589D01*
X+3357742Y+2991639D01*
X+3357742Y+2920361D01*
X+3358692Y+2915461D01*
X+3358692Y+2864561D01*
X+3361722Y+2864561D01*
X+3361722Y+2520863D01*
X+3491722Y+2390863D01*
X+3491722Y+2227639D01*
X+3175522Y+2227639D01*
X+3175522Y+1810000D01*
X+2981261Y+1810000D01*
X+2981261Y+3296500D01*
X+4124261Y+3296500D01*
X+4124261Y+1810000D01*
G37*
%LPC*%
G36*
X+3622850Y+3055061D02*
X+3452672Y+3055061D01*
X+3452672Y+3237939D01*
X+3622850Y+3237939D01*
X+3622850Y+3055061D01*
G37*
%LPD*%
G36*
X+5564261Y+1800000D02*
X+5410000Y+1800000D01*
X+5410000Y+2217639D01*
X+5353800Y+2217639D01*
X+5353800Y+2602137D01*
X+5173800Y+2782137D01*
X+5173800Y+2908442D01*
X+5157780Y+2981639D01*
X+5156830Y+2982589D01*
X+5156830Y+3037439D01*
X+4986652Y+3037439D01*
X+4986652Y+2982589D01*
X+4985702Y+2981639D01*
X+4985702Y+2910361D01*
X+4986652Y+2908412D01*
X+4986652Y+2854561D01*
X+5001722Y+2854561D01*
X+5001722Y+2710863D01*
X+5181722Y+2530863D01*
X+5181722Y+2217639D01*
X+5103800Y+2217639D01*
X+5103800Y+2452137D01*
X+4973800Y+2582137D01*
X+4973800Y+2898565D01*
X+4969820Y+2981639D01*
X+4968870Y+2982589D01*
X+4968870Y+3037439D01*
X+4798692Y+3037439D01*
X+4798692Y+2982589D01*
X+4797742Y+2981639D01*
X+4797742Y+2910361D01*
X+4798692Y+2905461D01*
X+4798692Y+2854561D01*
X+4801722Y+2854561D01*
X+4801722Y+2510863D01*
X+4931722Y+2380863D01*
X+4931722Y+2217639D01*
X+4615522Y+2217639D01*
X+4615522Y+1800000D01*
X+4421261Y+1800000D01*
X+4421261Y+3286500D01*
X+5564261Y+3286500D01*
X+5564261Y+1800000D01*
G37*
%LPC*%
G36*
X+5062850Y+3045061D02*
X+4892672Y+3045061D01*
X+4892672Y+3227939D01*
X+5062850Y+3227939D01*
X+5062850Y+3045061D01*
G37*
%LPD*%
G36*
X-350000Y-146500D02*
X-504261Y-146500D01*
X-504261Y+271139D01*
X-560461Y+271139D01*
X-560461Y+655637D01*
X-740461Y+835637D01*
X-740461Y+961942D01*
X-756481Y+1035139D01*
X-757431Y+1036089D01*
X-757431Y+1090939D01*
X-927609Y+1090939D01*
X-927609Y+1036089D01*
X-928559Y+1035139D01*
X-928559Y+963861D01*
X-927609Y+961912D01*
X-927609Y+908061D01*
X-912539Y+908061D01*
X-912539Y+764363D01*
X-732539Y+584363D01*
X-732539Y+271139D01*
X-810461Y+271139D01*
X-810461Y+505637D01*
X-940461Y+635637D01*
X-940461Y+952065D01*
X-944441Y+1035139D01*
X-945391Y+1036089D01*
X-945391Y+1090939D01*
X-1115569Y+1090939D01*
X-1115569Y+1036089D01*
X-1116519Y+1035139D01*
X-1116519Y+963861D01*
X-1115569Y+958961D01*
X-1115569Y+908061D01*
X-1112539Y+908061D01*
X-1112539Y+564363D01*
X-982539Y+434363D01*
X-982539Y+271139D01*
X-1298739Y+271139D01*
X-1298739Y-146500D01*
X-1493000Y-146500D01*
X-1493000Y+1340000D01*
X-350000Y+1340000D01*
X-350000Y-146500D01*
G37*
%LPC*%
G36*
X-851411Y+1098561D02*
X-1021589Y+1098561D01*
X-1021589Y+1281439D01*
X-851411Y+1281439D01*
X-851411Y+1098561D01*
G37*
%LPD*%
G36*
X+1144261Y-140000D02*
X+990000Y-140000D01*
X+990000Y+277639D01*
X+933800Y+277639D01*
X+933800Y+662137D01*
X+753800Y+842137D01*
X+753800Y+968442D01*
X+737780Y+1041639D01*
X+736830Y+1042589D01*
X+736830Y+1097439D01*
X+566652Y+1097439D01*
X+566652Y+1042589D01*
X+565702Y+1041639D01*
X+565702Y+970361D01*
X+566652Y+968412D01*
X+566652Y+914561D01*
X+581722Y+914561D01*
X+581722Y+770863D01*
X+761722Y+590863D01*
X+761722Y+277639D01*
X+683800Y+277639D01*
X+683800Y+512137D01*
X+553800Y+642137D01*
X+553800Y+958565D01*
X+549820Y+1041639D01*
X+548870Y+1042589D01*
X+548870Y+1097439D01*
X+378692Y+1097439D01*
X+378692Y+1042589D01*
X+377742Y+1041639D01*
X+377742Y+970361D01*
X+378692Y+965461D01*
X+378692Y+914561D01*
X+381722Y+914561D01*
X+381722Y+570863D01*
X+511722Y+440863D01*
X+511722Y+277639D01*
X+195522Y+277639D01*
X+195522Y-140000D01*
X+1261Y-140000D01*
X+1261Y+1346500D01*
X+1144261Y+1346500D01*
X+1144261Y-140000D01*
G37*
%LPC*%
G36*
X+642850Y+1105061D02*
X+472672Y+1105061D01*
X+472672Y+1287939D01*
X+642850Y+1287939D01*
X+642850Y+1105061D01*
G37*
%LPD*%
G36*
X+2620000Y-136500D02*
X+2465739Y-136500D01*
X+2465739Y+281139D01*
X+2409539Y+281139D01*
X+2409539Y+665637D01*
X+2229539Y+845637D01*
X+2229539Y+971942D01*
X+2213519Y+1045139D01*
X+2212569Y+1046089D01*
X+2212569Y+1100939D01*
X+2042391Y+1100939D01*
X+2042391Y+1046089D01*
X+2041441Y+1045139D01*
X+2041441Y+973861D01*
X+2042391Y+971912D01*
X+2042391Y+918061D01*
X+2057461Y+918061D01*
X+2057461Y+774363D01*
X+2237461Y+594363D01*
X+2237461Y+281139D01*
X+2159539Y+281139D01*
X+2159539Y+515637D01*
X+2029539Y+645637D01*
X+2029539Y+962065D01*
X+2025559Y+1045139D01*
X+2024609Y+1046089D01*
X+2024609Y+1100939D01*
X+1854431Y+1100939D01*
X+1854431Y+1046089D01*
X+1853481Y+1045139D01*
X+1853481Y+973861D01*
X+1854431Y+968961D01*
X+1854431Y+918061D01*
X+1857461Y+918061D01*
X+1857461Y+574363D01*
X+1987461Y+444363D01*
X+1987461Y+281139D01*
X+1671261Y+281139D01*
X+1671261Y-136500D01*
X+1477000Y-136500D01*
X+1477000Y+1350000D01*
X+2620000Y+1350000D01*
X+2620000Y-136500D01*
G37*
%LPC*%
G36*
X+2118589Y+1108561D02*
X+1948411Y+1108561D01*
X+1948411Y+1291439D01*
X+2118589Y+1291439D01*
X+2118589Y+1108561D01*
G37*
%LPD*%
G36*
X+4114261Y-130000D02*
X+3960000Y-130000D01*
X+3960000Y+287639D01*
X+3903800Y+287639D01*
X+3903800Y+672137D01*
X+3723800Y+852137D01*
X+3723800Y+978442D01*
X+3707780Y+1051639D01*
X+3706830Y+1052589D01*
X+3706830Y+1107439D01*
X+3536652Y+1107439D01*
X+3536652Y+1052589D01*
X+3535702Y+1051639D01*
X+3535702Y+980361D01*
X+3536652Y+978412D01*
X+3536652Y+924561D01*
X+3551722Y+924561D01*
X+3551722Y+780863D01*
X+3731722Y+600863D01*
X+3731722Y+287639D01*
X+3653800Y+287639D01*
X+3653800Y+522137D01*
X+3523800Y+652137D01*
X+3523800Y+968565D01*
X+3519820Y+1051639D01*
X+3518870Y+1052589D01*
X+3518870Y+1107439D01*
X+3348692Y+1107439D01*
X+3348692Y+1052589D01*
X+3347742Y+1051639D01*
X+3347742Y+980361D01*
X+3348692Y+975461D01*
X+3348692Y+924561D01*
X+3351722Y+924561D01*
X+3351722Y+580863D01*
X+3481722Y+450863D01*
X+3481722Y+287639D01*
X+3165522Y+287639D01*
X+3165522Y-130000D01*
X+2971261Y-130000D01*
X+2971261Y+1356500D01*
X+4114261Y+1356500D01*
X+4114261Y-130000D01*
G37*
%LPC*%
G36*
X+3612850Y+1115061D02*
X+3442672Y+1115061D01*
X+3442672Y+1297939D01*
X+3612850Y+1297939D01*
X+3612850Y+1115061D01*
G37*
%LPD*%
G36*
X+5554261Y-140000D02*
X+5400000Y-140000D01*
X+5400000Y+277639D01*
X+5343800Y+277639D01*
X+5343800Y+662137D01*
X+5163800Y+842137D01*
X+5163800Y+968442D01*
X+5147780Y+1041639D01*
X+5146830Y+1042589D01*
X+5146830Y+1097439D01*
X+4976652Y+1097439D01*
X+4976652Y+1042589D01*
X+4975702Y+1041639D01*
X+4975702Y+970361D01*
X+4976652Y+968412D01*
X+4976652Y+914561D01*
X+4991722Y+914561D01*
X+4991722Y+770863D01*
X+5171722Y+590863D01*
X+5171722Y+277639D01*
X+5093800Y+277639D01*
X+5093800Y+512137D01*
X+4963800Y+642137D01*
X+4963800Y+958565D01*
X+4959820Y+1041639D01*
X+4958870Y+1042589D01*
X+4958870Y+1097439D01*
X+4788692Y+1097439D01*
X+4788692Y+1042589D01*
X+4787742Y+1041639D01*
X+4787742Y+970361D01*
X+4788692Y+965461D01*
X+4788692Y+914561D01*
X+4791722Y+914561D01*
X+4791722Y+570863D01*
X+4921722Y+440863D01*
X+4921722Y+277639D01*
X+4605522Y+277639D01*
X+4605522Y-140000D01*
X+4411261Y-140000D01*
X+4411261Y+1346500D01*
X+5554261Y+1346500D01*
X+5554261Y-140000D01*
G37*
%LPC*%
G36*
X+5052850Y+1105061D02*
X+4882672Y+1105061D01*
X+4882672Y+1287939D01*
X+5052850Y+1287939D01*
X+5052850Y+1105061D01*
G37*
%LPD*%
D10*
X-882500Y+7710000D02*
X-876500Y+7900500D01*
X-876500Y+8140000D01*
X-1006500Y+8270000D01*
X-1006500Y+8618700D01*
X-1010480Y+8669500D01*
X-626500Y+7710000D02*
X-626500Y+8290000D01*
X-806500Y+8470000D01*
X-806500Y+8618700D01*
X-822520Y+8669500D01*
X+611761Y+7716500D02*
X+617761Y+7907000D01*
X+617761Y+8146500D01*
X+487761Y+8276500D01*
X+487761Y+8625200D01*
X+483781Y+8676000D01*
X+867761Y+7716500D02*
X+867761Y+8296500D01*
X+687761Y+8476500D01*
X+687761Y+8625200D01*
X+671741Y+8676000D01*
X+2087500Y+7720000D02*
X+2093500Y+7910500D01*
X+2093500Y+8150000D01*
X+1963500Y+8280000D01*
X+1963500Y+8628700D01*
X+1959520Y+8679500D01*
X+2343500Y+7720000D02*
X+2343500Y+8300000D01*
X+2163500Y+8480000D01*
X+2163500Y+8628700D01*
X+2147480Y+8679500D01*
X+3581761Y+7726500D02*
X+3587761Y+7917000D01*
X+3587761Y+8156500D01*
X+3457761Y+8286500D01*
X+3457761Y+8635200D01*
X+3453781Y+8686000D01*
X+3837761Y+7726500D02*
X+3837761Y+8306500D01*
X+3657761Y+8486500D01*
X+3657761Y+8635200D01*
X+3641741Y+8686000D01*
X+5021761Y+7716500D02*
X+5027761Y+7907000D01*
X+5027761Y+8146500D01*
X+4897761Y+8276500D01*
X+4897761Y+8625200D01*
X+4893781Y+8676000D01*
X+5277761Y+7716500D02*
X+5277761Y+8296500D01*
X+5097761Y+8476500D01*
X+5097761Y+8625200D01*
X+5081741Y+8676000D01*
X-882500Y+5810000D02*
X-876500Y+6000500D01*
X-876500Y+6240000D01*
X-1006500Y+6370000D01*
X-1006500Y+6718700D01*
X-1010480Y+6769500D01*
X-626500Y+5810000D02*
X-626500Y+6390000D01*
X-806500Y+6570000D01*
X-806500Y+6718700D01*
X-822520Y+6769500D01*
X+611761Y+5816500D02*
X+617761Y+6007000D01*
X+617761Y+6246500D01*
X+487761Y+6376500D01*
X+487761Y+6725200D01*
X+483781Y+6776000D01*
X+867761Y+5816500D02*
X+867761Y+6396500D01*
X+687761Y+6576500D01*
X+687761Y+6725200D01*
X+671741Y+6776000D01*
X+2087500Y+5820000D02*
X+2093500Y+6010500D01*
X+2093500Y+6250000D01*
X+1963500Y+6380000D01*
X+1963500Y+6728700D01*
X+1959520Y+6779500D01*
X+2343500Y+5820000D02*
X+2343500Y+6400000D01*
X+2163500Y+6580000D01*
X+2163500Y+6728700D01*
X+2147480Y+6779500D01*
X+3581761Y+5826500D02*
X+3587761Y+6017000D01*
X+3587761Y+6256500D01*
X+3457761Y+6386500D01*
X+3457761Y+6735200D01*
X+3453781Y+6786000D01*
X+3837761Y+5826500D02*
X+3837761Y+6406500D01*
X+3657761Y+6586500D01*
X+3657761Y+6735200D01*
X+3641741Y+6786000D01*
X+5021761Y+5816500D02*
X+5027761Y+6007000D01*
X+5027761Y+6246500D01*
X+4897761Y+6376500D01*
X+4897761Y+6725200D01*
X+4893781Y+6776000D01*
X+5277761Y+5816500D02*
X+5277761Y+6396500D01*
X+5097761Y+6576500D01*
X+5097761Y+6725200D01*
X+5081741Y+6776000D01*
X-902500Y+3900000D02*
X-896500Y+4090500D01*
X-896500Y+4330000D01*
X-1026500Y+4460000D01*
X-1026500Y+4808700D01*
X-1030480Y+4859500D01*
X-646500Y+3900000D02*
X-646500Y+4480000D01*
X-826500Y+4660000D01*
X-826500Y+4808700D01*
X-842520Y+4859500D01*
X+591761Y+3906500D02*
X+597761Y+4097000D01*
X+597761Y+4336500D01*
X+467761Y+4466500D01*
X+467761Y+4815200D01*
X+463781Y+4866000D01*
X+847761Y+3906500D02*
X+847761Y+4486500D01*
X+667761Y+4666500D01*
X+667761Y+4815200D01*
X+651741Y+4866000D01*
X+2067500Y+3910000D02*
X+2073500Y+4100500D01*
X+2073500Y+4340000D01*
X+1943500Y+4470000D01*
X+1943500Y+4818700D01*
X+1939520Y+4869500D01*
X+2323500Y+3910000D02*
X+2323500Y+4490000D01*
X+2143500Y+4670000D01*
X+2143500Y+4818700D01*
X+2127480Y+4869500D01*
X+3561761Y+3916500D02*
X+3567761Y+4107000D01*
X+3567761Y+4346500D01*
X+3437761Y+4476500D01*
X+3437761Y+4825200D01*
X+3433781Y+4876000D01*
X+3817761Y+3916500D02*
X+3817761Y+4496500D01*
X+3637761Y+4676500D01*
X+3637761Y+4825200D01*
X+3621741Y+4876000D01*
X+5001761Y+3906500D02*
X+5007761Y+4097000D01*
X+5007761Y+4336500D01*
X+4877761Y+4466500D01*
X+4877761Y+4815200D01*
X+4873781Y+4866000D01*
X+5257761Y+3906500D02*
X+5257761Y+4486500D01*
X+5077761Y+4666500D01*
X+5077761Y+4815200D01*
X+5061741Y+4866000D01*
X-892500Y+1980000D02*
X-886500Y+2170500D01*
X-886500Y+2410000D01*
X-1016500Y+2540000D01*
X-1016500Y+2888700D01*
X-1020480Y+2939500D01*
X-636500Y+1980000D02*
X-636500Y+2560000D01*
X-816500Y+2740000D01*
X-816500Y+2888700D01*
X-832520Y+2939500D01*
X+601761Y+1986500D02*
X+607761Y+2177000D01*
X+607761Y+2416500D01*
X+477761Y+2546500D01*
X+477761Y+2895200D01*
X+473781Y+2946000D01*
X+857761Y+1986500D02*
X+857761Y+2566500D01*
X+677761Y+2746500D01*
X+677761Y+2895200D01*
X+661741Y+2946000D01*
X+2077500Y+1990000D02*
X+2083500Y+2180500D01*
X+2083500Y+2420000D01*
X+1953500Y+2550000D01*
X+1953500Y+2898700D01*
X+1949520Y+2949500D01*
X+2333500Y+1990000D02*
X+2333500Y+2570000D01*
X+2153500Y+2750000D01*
X+2153500Y+2898700D01*
X+2137480Y+2949500D01*
X+3571761Y+1996500D02*
X+3577761Y+2187000D01*
X+3577761Y+2426500D01*
X+3447761Y+2556500D01*
X+3447761Y+2905200D01*
X+3443781Y+2956000D01*
X+3827761Y+1996500D02*
X+3827761Y+2576500D01*
X+3647761Y+2756500D01*
X+3647761Y+2905200D01*
X+3631741Y+2956000D01*
X+5011761Y+1986500D02*
X+5017761Y+2177000D01*
X+5017761Y+2416500D01*
X+4887761Y+2546500D01*
X+4887761Y+2895200D01*
X+4883781Y+2946000D01*
X+5267761Y+1986500D02*
X+5267761Y+2566500D01*
X+5087761Y+2746500D01*
X+5087761Y+2895200D01*
X+5071741Y+2946000D01*
X-902500Y+40000D02*
X-896500Y+230500D01*
X-896500Y+470000D01*
X-1026500Y+600000D01*
X-1026500Y+948700D01*
X-1030480Y+999500D01*
X-646500Y+40000D02*
X-646500Y+620000D01*
X-826500Y+800000D01*
X-826500Y+948700D01*
X-842520Y+999500D01*
X+591761Y+46500D02*
X+597761Y+237000D01*
X+597761Y+476500D01*
X+467761Y+606500D01*
X+467761Y+955200D01*
X+463781Y+1006000D01*
X+847761Y+46500D02*
X+847761Y+626500D01*
X+667761Y+806500D01*
X+667761Y+955200D01*
X+651741Y+1006000D01*
X+2067500Y+50000D02*
X+2073500Y+240500D01*
X+2073500Y+480000D01*
X+1943500Y+610000D01*
X+1943500Y+958700D01*
X+1939520Y+1009500D01*
X+2323500Y+50000D02*
X+2323500Y+630000D01*
X+2143500Y+810000D01*
X+2143500Y+958700D01*
X+2127480Y+1009500D01*
X+3561761Y+56500D02*
X+3567761Y+247000D01*
X+3567761Y+486500D01*
X+3437761Y+616500D01*
X+3437761Y+965200D01*
X+3433781Y+1016000D01*
X+3817761Y+56500D02*
X+3817761Y+636500D01*
X+3637761Y+816500D01*
X+3637761Y+965200D01*
X+3621741Y+1016000D01*
X+5001761Y+46500D02*
X+5007761Y+237000D01*
X+5007761Y+476500D01*
X+4877761Y+606500D01*
X+4877761Y+955200D01*
X+4873781Y+1006000D01*
X+5257761Y+46500D02*
X+5257761Y+626500D01*
X+5077761Y+806500D01*
X+5077761Y+955200D01*
X+5061741Y+1006000D01*
D11*
X-330000Y+7523500D02*
X-484261Y+7523500D01*
X-484261Y+7941139D01*
X-540461Y+7941139D01*
X-540461Y+8325637D01*
X-720461Y+8505637D01*
X-720461Y+8631942D01*
X-736481Y+8705139D01*
X-737431Y+8706089D01*
X-737431Y+8760939D01*
X-907609Y+8760939D01*
X-907609Y+8706089D01*
X-908559Y+8705139D01*
X-908559Y+8633861D01*
X-907609Y+8631912D01*
X-907609Y+8578061D01*
X-892539Y+8578061D01*
X-892539Y+8434363D01*
X-712539Y+8254363D01*
X-712539Y+7941139D01*
X-790461Y+7941139D01*
X-790461Y+8175637D01*
X-920461Y+8305637D01*
X-920461Y+8622065D01*
X-924441Y+8705139D01*
X-925391Y+8706089D01*
X-925391Y+8760939D01*
X-1095569Y+8760939D01*
X-1095569Y+8706089D01*
X-1096519Y+8705139D01*
X-1096519Y+8633861D01*
X-1095569Y+8628961D01*
X-1095569Y+8578061D01*
X-1092539Y+8578061D01*
X-1092539Y+8234363D01*
X-962539Y+8104363D01*
X-962539Y+7941139D01*
X-1278739Y+7941139D01*
X-1278739Y+7523500D01*
X-1473000Y+7523500D01*
X-1473000Y+9010000D01*
X-330000Y+9010000D01*
X-330000Y+7523500D01*
X-831411Y+8768561D02*
X-1001589Y+8768561D01*
X-1001589Y+8951439D01*
X-831411Y+8951439D01*
X-831411Y+8768561D01*
D12*
X-916500Y+8936199D02*
X-916500Y+8860000D01*
X-986349Y+8860000D02*
X-916500Y+8860000D01*
X-916500Y+8783801D02*
X-916500Y+8860000D01*
X-846651Y+8860000D02*
X-916500Y+8860000D01*
X-1136500Y+7925899D02*
X-1136500Y+7710000D01*
X-1263499Y+7710000D02*
X-1136500Y+7710000D01*
D11*
X+1164261Y+7530000D02*
X+1010000Y+7530000D01*
X+1010000Y+7947639D01*
X+953800Y+7947639D01*
X+953800Y+8332137D01*
X+773800Y+8512137D01*
X+773800Y+8638442D01*
X+757780Y+8711639D01*
X+756830Y+8712589D01*
X+756830Y+8767439D01*
X+586652Y+8767439D01*
X+586652Y+8712589D01*
X+585702Y+8711639D01*
X+585702Y+8640361D01*
X+586652Y+8638412D01*
X+586652Y+8584561D01*
X+601722Y+8584561D01*
X+601722Y+8440863D01*
X+781722Y+8260863D01*
X+781722Y+7947639D01*
X+703800Y+7947639D01*
X+703800Y+8182137D01*
X+573800Y+8312137D01*
X+573800Y+8628565D01*
X+569820Y+8711639D01*
X+568870Y+8712589D01*
X+568870Y+8767439D01*
X+398692Y+8767439D01*
X+398692Y+8712589D01*
X+397742Y+8711639D01*
X+397742Y+8640361D01*
X+398692Y+8635461D01*
X+398692Y+8584561D01*
X+401722Y+8584561D01*
X+401722Y+8240863D01*
X+531722Y+8110863D01*
X+531722Y+7947639D01*
X+215522Y+7947639D01*
X+215522Y+7530000D01*
X+21261Y+7530000D01*
X+21261Y+9016500D01*
X+1164261Y+9016500D01*
X+1164261Y+7530000D01*
X+662850Y+8775061D02*
X+492672Y+8775061D01*
X+492672Y+8957939D01*
X+662850Y+8957939D01*
X+662850Y+8775061D01*
D12*
X+577761Y+8942699D02*
X+577761Y+8866500D01*
X+507912Y+8866500D02*
X+577761Y+8866500D01*
X+577761Y+8790301D02*
X+577761Y+8866500D01*
X+647610Y+8866500D02*
X+577761Y+8866500D01*
X+357761Y+7932399D02*
X+357761Y+7716500D01*
X+230762Y+7716500D02*
X+357761Y+7716500D01*
D11*
X+2640000Y+7533500D02*
X+2485739Y+7533500D01*
X+2485739Y+7951139D01*
X+2429539Y+7951139D01*
X+2429539Y+8335637D01*
X+2249539Y+8515637D01*
X+2249539Y+8641942D01*
X+2233519Y+8715139D01*
X+2232569Y+8716089D01*
X+2232569Y+8770939D01*
X+2062391Y+8770939D01*
X+2062391Y+8716089D01*
X+2061441Y+8715139D01*
X+2061441Y+8643861D01*
X+2062391Y+8641912D01*
X+2062391Y+8588061D01*
X+2077461Y+8588061D01*
X+2077461Y+8444363D01*
X+2257461Y+8264363D01*
X+2257461Y+7951139D01*
X+2179539Y+7951139D01*
X+2179539Y+8185637D01*
X+2049539Y+8315637D01*
X+2049539Y+8632065D01*
X+2045559Y+8715139D01*
X+2044609Y+8716089D01*
X+2044609Y+8770939D01*
X+1874431Y+8770939D01*
X+1874431Y+8716089D01*
X+1873481Y+8715139D01*
X+1873481Y+8643861D01*
X+1874431Y+8638961D01*
X+1874431Y+8588061D01*
X+1877461Y+8588061D01*
X+1877461Y+8244363D01*
X+2007461Y+8114363D01*
X+2007461Y+7951139D01*
X+1691261Y+7951139D01*
X+1691261Y+7533500D01*
X+1497000Y+7533500D01*
X+1497000Y+9020000D01*
X+2640000Y+9020000D01*
X+2640000Y+7533500D01*
X+2138589Y+8778561D02*
X+1968411Y+8778561D01*
X+1968411Y+8961439D01*
X+2138589Y+8961439D01*
X+2138589Y+8778561D01*
D12*
X+2053500Y+8946199D02*
X+2053500Y+8870000D01*
X+1983651Y+8870000D02*
X+2053500Y+8870000D01*
X+2053500Y+8793801D02*
X+2053500Y+8870000D01*
X+2123349Y+8870000D02*
X+2053500Y+8870000D01*
X+1833500Y+7935899D02*
X+1833500Y+7720000D01*
X+1706501Y+7720000D02*
X+1833500Y+7720000D01*
D11*
X+4134261Y+7540000D02*
X+3980000Y+7540000D01*
X+3980000Y+7957639D01*
X+3923800Y+7957639D01*
X+3923800Y+8342137D01*
X+3743800Y+8522137D01*
X+3743800Y+8648442D01*
X+3727780Y+8721639D01*
X+3726830Y+8722589D01*
X+3726830Y+8777439D01*
X+3556652Y+8777439D01*
X+3556652Y+8722589D01*
X+3555702Y+8721639D01*
X+3555702Y+8650361D01*
X+3556652Y+8648412D01*
X+3556652Y+8594561D01*
X+3571722Y+8594561D01*
X+3571722Y+8450863D01*
X+3751722Y+8270863D01*
X+3751722Y+7957639D01*
X+3673800Y+7957639D01*
X+3673800Y+8192137D01*
X+3543800Y+8322137D01*
X+3543800Y+8638565D01*
X+3539820Y+8721639D01*
X+3538870Y+8722589D01*
X+3538870Y+8777439D01*
X+3368692Y+8777439D01*
X+3368692Y+8722589D01*
X+3367742Y+8721639D01*
X+3367742Y+8650361D01*
X+3368692Y+8645461D01*
X+3368692Y+8594561D01*
X+3371722Y+8594561D01*
X+3371722Y+8250863D01*
X+3501722Y+8120863D01*
X+3501722Y+7957639D01*
X+3185522Y+7957639D01*
X+3185522Y+7540000D01*
X+2991261Y+7540000D01*
X+2991261Y+9026500D01*
X+4134261Y+9026500D01*
X+4134261Y+7540000D01*
X+3632850Y+8785061D02*
X+3462672Y+8785061D01*
X+3462672Y+8967939D01*
X+3632850Y+8967939D01*
X+3632850Y+8785061D01*
D12*
X+3547761Y+8952699D02*
X+3547761Y+8876500D01*
X+3477912Y+8876500D02*
X+3547761Y+8876500D01*
X+3547761Y+8800301D02*
X+3547761Y+8876500D01*
X+3617610Y+8876500D02*
X+3547761Y+8876500D01*
X+3327761Y+7942399D02*
X+3327761Y+7726500D01*
X+3200762Y+7726500D02*
X+3327761Y+7726500D01*
D11*
X+5574261Y+7530000D02*
X+5420000Y+7530000D01*
X+5420000Y+7947639D01*
X+5363800Y+7947639D01*
X+5363800Y+8332137D01*
X+5183800Y+8512137D01*
X+5183800Y+8638442D01*
X+5167780Y+8711639D01*
X+5166830Y+8712589D01*
X+5166830Y+8767439D01*
X+4996652Y+8767439D01*
X+4996652Y+8712589D01*
X+4995702Y+8711639D01*
X+4995702Y+8640361D01*
X+4996652Y+8638412D01*
X+4996652Y+8584561D01*
X+5011722Y+8584561D01*
X+5011722Y+8440863D01*
X+5191722Y+8260863D01*
X+5191722Y+7947639D01*
X+5113800Y+7947639D01*
X+5113800Y+8182137D01*
X+4983800Y+8312137D01*
X+4983800Y+8628565D01*
X+4979820Y+8711639D01*
X+4978870Y+8712589D01*
X+4978870Y+8767439D01*
X+4808692Y+8767439D01*
X+4808692Y+8712589D01*
X+4807742Y+8711639D01*
X+4807742Y+8640361D01*
X+4808692Y+8635461D01*
X+4808692Y+8584561D01*
X+4811722Y+8584561D01*
X+4811722Y+8240863D01*
X+4941722Y+8110863D01*
X+4941722Y+7947639D01*
X+4625522Y+7947639D01*
X+4625522Y+7530000D01*
X+4431261Y+7530000D01*
X+4431261Y+9016500D01*
X+5574261Y+9016500D01*
X+5574261Y+7530000D01*
X+5072850Y+8775061D02*
X+4902672Y+8775061D01*
X+4902672Y+8957939D01*
X+5072850Y+8957939D01*
X+5072850Y+8775061D01*
D12*
X+4987761Y+8942699D02*
X+4987761Y+8866500D01*
X+4917912Y+8866500D02*
X+4987761Y+8866500D01*
X+4987761Y+8790301D02*
X+4987761Y+8866500D01*
X+5057610Y+8866500D02*
X+4987761Y+8866500D01*
X+4767761Y+7932399D02*
X+4767761Y+7716500D01*
X+4640762Y+7716500D02*
X+4767761Y+7716500D01*
D11*
X-330000Y+5623500D02*
X-484261Y+5623500D01*
X-484261Y+6041139D01*
X-540461Y+6041139D01*
X-540461Y+6425637D01*
X-720461Y+6605637D01*
X-720461Y+6731942D01*
X-736481Y+6805139D01*
X-737431Y+6806089D01*
X-737431Y+6860939D01*
X-907609Y+6860939D01*
X-907609Y+6806089D01*
X-908559Y+6805139D01*
X-908559Y+6733861D01*
X-907609Y+6731912D01*
X-907609Y+6678061D01*
X-892539Y+6678061D01*
X-892539Y+6534363D01*
X-712539Y+6354363D01*
X-712539Y+6041139D01*
X-790461Y+6041139D01*
X-790461Y+6275637D01*
X-920461Y+6405637D01*
X-920461Y+6722065D01*
X-924441Y+6805139D01*
X-925391Y+6806089D01*
X-925391Y+6860939D01*
X-1095569Y+6860939D01*
X-1095569Y+6806089D01*
X-1096519Y+6805139D01*
X-1096519Y+6733861D01*
X-1095569Y+6728961D01*
X-1095569Y+6678061D01*
X-1092539Y+6678061D01*
X-1092539Y+6334363D01*
X-962539Y+6204363D01*
X-962539Y+6041139D01*
X-1278739Y+6041139D01*
X-1278739Y+5623500D01*
X-1473000Y+5623500D01*
X-1473000Y+7110000D01*
X-330000Y+7110000D01*
X-330000Y+5623500D01*
X-831411Y+6868561D02*
X-1001589Y+6868561D01*
X-1001589Y+7051439D01*
X-831411Y+7051439D01*
X-831411Y+6868561D01*
D12*
X-916500Y+7036199D02*
X-916500Y+6960000D01*
X-986349Y+6960000D02*
X-916500Y+6960000D01*
X-916500Y+6883801D02*
X-916500Y+6960000D01*
X-846651Y+6960000D02*
X-916500Y+6960000D01*
X-1136500Y+6025899D02*
X-1136500Y+5810000D01*
X-1263499Y+5810000D02*
X-1136500Y+5810000D01*
D11*
X+1164261Y+5630000D02*
X+1010000Y+5630000D01*
X+1010000Y+6047639D01*
X+953800Y+6047639D01*
X+953800Y+6432137D01*
X+773800Y+6612137D01*
X+773800Y+6738442D01*
X+757780Y+6811639D01*
X+756830Y+6812589D01*
X+756830Y+6867439D01*
X+586652Y+6867439D01*
X+586652Y+6812589D01*
X+585702Y+6811639D01*
X+585702Y+6740361D01*
X+586652Y+6738412D01*
X+586652Y+6684561D01*
X+601722Y+6684561D01*
X+601722Y+6540863D01*
X+781722Y+6360863D01*
X+781722Y+6047639D01*
X+703800Y+6047639D01*
X+703800Y+6282137D01*
X+573800Y+6412137D01*
X+573800Y+6728565D01*
X+569820Y+6811639D01*
X+568870Y+6812589D01*
X+568870Y+6867439D01*
X+398692Y+6867439D01*
X+398692Y+6812589D01*
X+397742Y+6811639D01*
X+397742Y+6740361D01*
X+398692Y+6735461D01*
X+398692Y+6684561D01*
X+401722Y+6684561D01*
X+401722Y+6340863D01*
X+531722Y+6210863D01*
X+531722Y+6047639D01*
X+215522Y+6047639D01*
X+215522Y+5630000D01*
X+21261Y+5630000D01*
X+21261Y+7116500D01*
X+1164261Y+7116500D01*
X+1164261Y+5630000D01*
X+662850Y+6875061D02*
X+492672Y+6875061D01*
X+492672Y+7057939D01*
X+662850Y+7057939D01*
X+662850Y+6875061D01*
D12*
X+577761Y+7042699D02*
X+577761Y+6966500D01*
X+507912Y+6966500D02*
X+577761Y+6966500D01*
X+577761Y+6890301D02*
X+577761Y+6966500D01*
X+647610Y+6966500D02*
X+577761Y+6966500D01*
X+357761Y+6032399D02*
X+357761Y+5816500D01*
X+230762Y+5816500D02*
X+357761Y+5816500D01*
D11*
X+2640000Y+5633500D02*
X+2485739Y+5633500D01*
X+2485739Y+6051139D01*
X+2429539Y+6051139D01*
X+2429539Y+6435637D01*
X+2249539Y+6615637D01*
X+2249539Y+6741942D01*
X+2233519Y+6815139D01*
X+2232569Y+6816089D01*
X+2232569Y+6870939D01*
X+2062391Y+6870939D01*
X+2062391Y+6816089D01*
X+2061441Y+6815139D01*
X+2061441Y+6743861D01*
X+2062391Y+6741912D01*
X+2062391Y+6688061D01*
X+2077461Y+6688061D01*
X+2077461Y+6544363D01*
X+2257461Y+6364363D01*
X+2257461Y+6051139D01*
X+2179539Y+6051139D01*
X+2179539Y+6285637D01*
X+2049539Y+6415637D01*
X+2049539Y+6732065D01*
X+2045559Y+6815139D01*
X+2044609Y+6816089D01*
X+2044609Y+6870939D01*
X+1874431Y+6870939D01*
X+1874431Y+6816089D01*
X+1873481Y+6815139D01*
X+1873481Y+6743861D01*
X+1874431Y+6738961D01*
X+1874431Y+6688061D01*
X+1877461Y+6688061D01*
X+1877461Y+6344363D01*
X+2007461Y+6214363D01*
X+2007461Y+6051139D01*
X+1691261Y+6051139D01*
X+1691261Y+5633500D01*
X+1497000Y+5633500D01*
X+1497000Y+7120000D01*
X+2640000Y+7120000D01*
X+2640000Y+5633500D01*
X+2138589Y+6878561D02*
X+1968411Y+6878561D01*
X+1968411Y+7061439D01*
X+2138589Y+7061439D01*
X+2138589Y+6878561D01*
D12*
X+2053500Y+7046199D02*
X+2053500Y+6970000D01*
X+1983651Y+6970000D02*
X+2053500Y+6970000D01*
X+2053500Y+6893801D02*
X+2053500Y+6970000D01*
X+2123349Y+6970000D02*
X+2053500Y+6970000D01*
X+1833500Y+6035899D02*
X+1833500Y+5820000D01*
X+1706501Y+5820000D02*
X+1833500Y+5820000D01*
D11*
X+4134261Y+5640000D02*
X+3980000Y+5640000D01*
X+3980000Y+6057639D01*
X+3923800Y+6057639D01*
X+3923800Y+6442137D01*
X+3743800Y+6622137D01*
X+3743800Y+6748442D01*
X+3727780Y+6821639D01*
X+3726830Y+6822589D01*
X+3726830Y+6877439D01*
X+3556652Y+6877439D01*
X+3556652Y+6822589D01*
X+3555702Y+6821639D01*
X+3555702Y+6750361D01*
X+3556652Y+6748412D01*
X+3556652Y+6694561D01*
X+3571722Y+6694561D01*
X+3571722Y+6550863D01*
X+3751722Y+6370863D01*
X+3751722Y+6057639D01*
X+3673800Y+6057639D01*
X+3673800Y+6292137D01*
X+3543800Y+6422137D01*
X+3543800Y+6738565D01*
X+3539820Y+6821639D01*
X+3538870Y+6822589D01*
X+3538870Y+6877439D01*
X+3368692Y+6877439D01*
X+3368692Y+6822589D01*
X+3367742Y+6821639D01*
X+3367742Y+6750361D01*
X+3368692Y+6745461D01*
X+3368692Y+6694561D01*
X+3371722Y+6694561D01*
X+3371722Y+6350863D01*
X+3501722Y+6220863D01*
X+3501722Y+6057639D01*
X+3185522Y+6057639D01*
X+3185522Y+5640000D01*
X+2991261Y+5640000D01*
X+2991261Y+7126500D01*
X+4134261Y+7126500D01*
X+4134261Y+5640000D01*
X+3632850Y+6885061D02*
X+3462672Y+6885061D01*
X+3462672Y+7067939D01*
X+3632850Y+7067939D01*
X+3632850Y+6885061D01*
D12*
X+3547761Y+7052699D02*
X+3547761Y+6976500D01*
X+3477912Y+6976500D02*
X+3547761Y+6976500D01*
X+3547761Y+6900301D02*
X+3547761Y+6976500D01*
X+3617610Y+6976500D02*
X+3547761Y+6976500D01*
X+3327761Y+6042399D02*
X+3327761Y+5826500D01*
X+3200762Y+5826500D02*
X+3327761Y+5826500D01*
D11*
X+5574261Y+5630000D02*
X+5420000Y+5630000D01*
X+5420000Y+6047639D01*
X+5363800Y+6047639D01*
X+5363800Y+6432137D01*
X+5183800Y+6612137D01*
X+5183800Y+6738442D01*
X+5167780Y+6811639D01*
X+5166830Y+6812589D01*
X+5166830Y+6867439D01*
X+4996652Y+6867439D01*
X+4996652Y+6812589D01*
X+4995702Y+6811639D01*
X+4995702Y+6740361D01*
X+4996652Y+6738412D01*
X+4996652Y+6684561D01*
X+5011722Y+6684561D01*
X+5011722Y+6540863D01*
X+5191722Y+6360863D01*
X+5191722Y+6047639D01*
X+5113800Y+6047639D01*
X+5113800Y+6282137D01*
X+4983800Y+6412137D01*
X+4983800Y+6728565D01*
X+4979820Y+6811639D01*
X+4978870Y+6812589D01*
X+4978870Y+6867439D01*
X+4808692Y+6867439D01*
X+4808692Y+6812589D01*
X+4807742Y+6811639D01*
X+4807742Y+6740361D01*
X+4808692Y+6735461D01*
X+4808692Y+6684561D01*
X+4811722Y+6684561D01*
X+4811722Y+6340863D01*
X+4941722Y+6210863D01*
X+4941722Y+6047639D01*
X+4625522Y+6047639D01*
X+4625522Y+5630000D01*
X+4431261Y+5630000D01*
X+4431261Y+7116500D01*
X+5574261Y+7116500D01*
X+5574261Y+5630000D01*
X+5072850Y+6875061D02*
X+4902672Y+6875061D01*
X+4902672Y+7057939D01*
X+5072850Y+7057939D01*
X+5072850Y+6875061D01*
D12*
X+4987761Y+7042699D02*
X+4987761Y+6966500D01*
X+4917912Y+6966500D02*
X+4987761Y+6966500D01*
X+4987761Y+6890301D02*
X+4987761Y+6966500D01*
X+5057610Y+6966500D02*
X+4987761Y+6966500D01*
X+4767761Y+6032399D02*
X+4767761Y+5816500D01*
X+4640762Y+5816500D02*
X+4767761Y+5816500D01*
D11*
X-350000Y+3713500D02*
X-504261Y+3713500D01*
X-504261Y+4131139D01*
X-560461Y+4131139D01*
X-560461Y+4515637D01*
X-740461Y+4695637D01*
X-740461Y+4821942D01*
X-756481Y+4895139D01*
X-757431Y+4896089D01*
X-757431Y+4950939D01*
X-927609Y+4950939D01*
X-927609Y+4896089D01*
X-928559Y+4895139D01*
X-928559Y+4823861D01*
X-927609Y+4821912D01*
X-927609Y+4768061D01*
X-912539Y+4768061D01*
X-912539Y+4624363D01*
X-732539Y+4444363D01*
X-732539Y+4131139D01*
X-810461Y+4131139D01*
X-810461Y+4365637D01*
X-940461Y+4495637D01*
X-940461Y+4812065D01*
X-944441Y+4895139D01*
X-945391Y+4896089D01*
X-945391Y+4950939D01*
X-1115569Y+4950939D01*
X-1115569Y+4896089D01*
X-1116519Y+4895139D01*
X-1116519Y+4823861D01*
X-1115569Y+4818961D01*
X-1115569Y+4768061D01*
X-1112539Y+4768061D01*
X-1112539Y+4424363D01*
X-982539Y+4294363D01*
X-982539Y+4131139D01*
X-1298739Y+4131139D01*
X-1298739Y+3713500D01*
X-1493000Y+3713500D01*
X-1493000Y+5200000D01*
X-350000Y+5200000D01*
X-350000Y+3713500D01*
X-851411Y+4958561D02*
X-1021589Y+4958561D01*
X-1021589Y+5141439D01*
X-851411Y+5141439D01*
X-851411Y+4958561D01*
D12*
X-936500Y+5126199D02*
X-936500Y+5050000D01*
X-1006349Y+5050000D02*
X-936500Y+5050000D01*
X-936500Y+4973801D02*
X-936500Y+5050000D01*
X-866651Y+5050000D02*
X-936500Y+5050000D01*
X-1156500Y+4115899D02*
X-1156500Y+3900000D01*
X-1283499Y+3900000D02*
X-1156500Y+3900000D01*
D11*
X+1144261Y+3720000D02*
X+990000Y+3720000D01*
X+990000Y+4137639D01*
X+933800Y+4137639D01*
X+933800Y+4522137D01*
X+753800Y+4702137D01*
X+753800Y+4828442D01*
X+737780Y+4901639D01*
X+736830Y+4902589D01*
X+736830Y+4957439D01*
X+566652Y+4957439D01*
X+566652Y+4902589D01*
X+565702Y+4901639D01*
X+565702Y+4830361D01*
X+566652Y+4828412D01*
X+566652Y+4774561D01*
X+581722Y+4774561D01*
X+581722Y+4630863D01*
X+761722Y+4450863D01*
X+761722Y+4137639D01*
X+683800Y+4137639D01*
X+683800Y+4372137D01*
X+553800Y+4502137D01*
X+553800Y+4818565D01*
X+549820Y+4901639D01*
X+548870Y+4902589D01*
X+548870Y+4957439D01*
X+378692Y+4957439D01*
X+378692Y+4902589D01*
X+377742Y+4901639D01*
X+377742Y+4830361D01*
X+378692Y+4825461D01*
X+378692Y+4774561D01*
X+381722Y+4774561D01*
X+381722Y+4430863D01*
X+511722Y+4300863D01*
X+511722Y+4137639D01*
X+195522Y+4137639D01*
X+195522Y+3720000D01*
X+1261Y+3720000D01*
X+1261Y+5206500D01*
X+1144261Y+5206500D01*
X+1144261Y+3720000D01*
X+642850Y+4965061D02*
X+472672Y+4965061D01*
X+472672Y+5147939D01*
X+642850Y+5147939D01*
X+642850Y+4965061D01*
D12*
X+557761Y+5132699D02*
X+557761Y+5056500D01*
X+487912Y+5056500D02*
X+557761Y+5056500D01*
X+557761Y+4980301D02*
X+557761Y+5056500D01*
X+627610Y+5056500D02*
X+557761Y+5056500D01*
X+337761Y+4122399D02*
X+337761Y+3906500D01*
X+210762Y+3906500D02*
X+337761Y+3906500D01*
D11*
X+2620000Y+3723500D02*
X+2465739Y+3723500D01*
X+2465739Y+4141139D01*
X+2409539Y+4141139D01*
X+2409539Y+4525637D01*
X+2229539Y+4705637D01*
X+2229539Y+4831942D01*
X+2213519Y+4905139D01*
X+2212569Y+4906089D01*
X+2212569Y+4960939D01*
X+2042391Y+4960939D01*
X+2042391Y+4906089D01*
X+2041441Y+4905139D01*
X+2041441Y+4833861D01*
X+2042391Y+4831912D01*
X+2042391Y+4778061D01*
X+2057461Y+4778061D01*
X+2057461Y+4634363D01*
X+2237461Y+4454363D01*
X+2237461Y+4141139D01*
X+2159539Y+4141139D01*
X+2159539Y+4375637D01*
X+2029539Y+4505637D01*
X+2029539Y+4822065D01*
X+2025559Y+4905139D01*
X+2024609Y+4906089D01*
X+2024609Y+4960939D01*
X+1854431Y+4960939D01*
X+1854431Y+4906089D01*
X+1853481Y+4905139D01*
X+1853481Y+4833861D01*
X+1854431Y+4828961D01*
X+1854431Y+4778061D01*
X+1857461Y+4778061D01*
X+1857461Y+4434363D01*
X+1987461Y+4304363D01*
X+1987461Y+4141139D01*
X+1671261Y+4141139D01*
X+1671261Y+3723500D01*
X+1477000Y+3723500D01*
X+1477000Y+5210000D01*
X+2620000Y+5210000D01*
X+2620000Y+3723500D01*
X+2118589Y+4968561D02*
X+1948411Y+4968561D01*
X+1948411Y+5151439D01*
X+2118589Y+5151439D01*
X+2118589Y+4968561D01*
D12*
X+2033500Y+5136199D02*
X+2033500Y+5060000D01*
X+1963651Y+5060000D02*
X+2033500Y+5060000D01*
X+2033500Y+4983801D02*
X+2033500Y+5060000D01*
X+2103349Y+5060000D02*
X+2033500Y+5060000D01*
X+1813500Y+4125899D02*
X+1813500Y+3910000D01*
X+1686501Y+3910000D02*
X+1813500Y+3910000D01*
D11*
X+4114261Y+3730000D02*
X+3960000Y+3730000D01*
X+3960000Y+4147639D01*
X+3903800Y+4147639D01*
X+3903800Y+4532137D01*
X+3723800Y+4712137D01*
X+3723800Y+4838442D01*
X+3707780Y+4911639D01*
X+3706830Y+4912589D01*
X+3706830Y+4967439D01*
X+3536652Y+4967439D01*
X+3536652Y+4912589D01*
X+3535702Y+4911639D01*
X+3535702Y+4840361D01*
X+3536652Y+4838412D01*
X+3536652Y+4784561D01*
X+3551722Y+4784561D01*
X+3551722Y+4640863D01*
X+3731722Y+4460863D01*
X+3731722Y+4147639D01*
X+3653800Y+4147639D01*
X+3653800Y+4382137D01*
X+3523800Y+4512137D01*
X+3523800Y+4828565D01*
X+3519820Y+4911639D01*
X+3518870Y+4912589D01*
X+3518870Y+4967439D01*
X+3348692Y+4967439D01*
X+3348692Y+4912589D01*
X+3347742Y+4911639D01*
X+3347742Y+4840361D01*
X+3348692Y+4835461D01*
X+3348692Y+4784561D01*
X+3351722Y+4784561D01*
X+3351722Y+4440863D01*
X+3481722Y+4310863D01*
X+3481722Y+4147639D01*
X+3165522Y+4147639D01*
X+3165522Y+3730000D01*
X+2971261Y+3730000D01*
X+2971261Y+5216500D01*
X+4114261Y+5216500D01*
X+4114261Y+3730000D01*
X+3612850Y+4975061D02*
X+3442672Y+4975061D01*
X+3442672Y+5157939D01*
X+3612850Y+5157939D01*
X+3612850Y+4975061D01*
D12*
X+3527761Y+5142699D02*
X+3527761Y+5066500D01*
X+3457912Y+5066500D02*
X+3527761Y+5066500D01*
X+3527761Y+4990301D02*
X+3527761Y+5066500D01*
X+3597610Y+5066500D02*
X+3527761Y+5066500D01*
X+3307761Y+4132399D02*
X+3307761Y+3916500D01*
X+3180762Y+3916500D02*
X+3307761Y+3916500D01*
D11*
X+5554261Y+3720000D02*
X+5400000Y+3720000D01*
X+5400000Y+4137639D01*
X+5343800Y+4137639D01*
X+5343800Y+4522137D01*
X+5163800Y+4702137D01*
X+5163800Y+4828442D01*
X+5147780Y+4901639D01*
X+5146830Y+4902589D01*
X+5146830Y+4957439D01*
X+4976652Y+4957439D01*
X+4976652Y+4902589D01*
X+4975702Y+4901639D01*
X+4975702Y+4830361D01*
X+4976652Y+4828412D01*
X+4976652Y+4774561D01*
X+4991722Y+4774561D01*
X+4991722Y+4630863D01*
X+5171722Y+4450863D01*
X+5171722Y+4137639D01*
X+5093800Y+4137639D01*
X+5093800Y+4372137D01*
X+4963800Y+4502137D01*
X+4963800Y+4818565D01*
X+4959820Y+4901639D01*
X+4958870Y+4902589D01*
X+4958870Y+4957439D01*
X+4788692Y+4957439D01*
X+4788692Y+4902589D01*
X+4787742Y+4901639D01*
X+4787742Y+4830361D01*
X+4788692Y+4825461D01*
X+4788692Y+4774561D01*
X+4791722Y+4774561D01*
X+4791722Y+4430863D01*
X+4921722Y+4300863D01*
X+4921722Y+4137639D01*
X+4605522Y+4137639D01*
X+4605522Y+3720000D01*
X+4411261Y+3720000D01*
X+4411261Y+5206500D01*
X+5554261Y+5206500D01*
X+5554261Y+3720000D01*
X+5052850Y+4965061D02*
X+4882672Y+4965061D01*
X+4882672Y+5147939D01*
X+5052850Y+5147939D01*
X+5052850Y+4965061D01*
D12*
X+4967761Y+5132699D02*
X+4967761Y+5056500D01*
X+4897912Y+5056500D02*
X+4967761Y+5056500D01*
X+4967761Y+4980301D02*
X+4967761Y+5056500D01*
X+5037610Y+5056500D02*
X+4967761Y+5056500D01*
X+4747761Y+4122399D02*
X+4747761Y+3906500D01*
X+4620762Y+3906500D02*
X+4747761Y+3906500D01*
D11*
X-340000Y+1793500D02*
X-494261Y+1793500D01*
X-494261Y+2211139D01*
X-550461Y+2211139D01*
X-550461Y+2595637D01*
X-730461Y+2775637D01*
X-730461Y+2901942D01*
X-746481Y+2975139D01*
X-747431Y+2976089D01*
X-747431Y+3030939D01*
X-917609Y+3030939D01*
X-917609Y+2976089D01*
X-918559Y+2975139D01*
X-918559Y+2903861D01*
X-917609Y+2901912D01*
X-917609Y+2848061D01*
X-902539Y+2848061D01*
X-902539Y+2704363D01*
X-722539Y+2524363D01*
X-722539Y+2211139D01*
X-800461Y+2211139D01*
X-800461Y+2445637D01*
X-930461Y+2575637D01*
X-930461Y+2892065D01*
X-934441Y+2975139D01*
X-935391Y+2976089D01*
X-935391Y+3030939D01*
X-1105569Y+3030939D01*
X-1105569Y+2976089D01*
X-1106519Y+2975139D01*
X-1106519Y+2903861D01*
X-1105569Y+2898961D01*
X-1105569Y+2848061D01*
X-1102539Y+2848061D01*
X-1102539Y+2504363D01*
X-972539Y+2374363D01*
X-972539Y+2211139D01*
X-1288739Y+2211139D01*
X-1288739Y+1793500D01*
X-1483000Y+1793500D01*
X-1483000Y+3280000D01*
X-340000Y+3280000D01*
X-340000Y+1793500D01*
X-841411Y+3038561D02*
X-1011589Y+3038561D01*
X-1011589Y+3221439D01*
X-841411Y+3221439D01*
X-841411Y+3038561D01*
D12*
X-926500Y+3206199D02*
X-926500Y+3130000D01*
X-996349Y+3130000D02*
X-926500Y+3130000D01*
X-926500Y+3053801D02*
X-926500Y+3130000D01*
X-856651Y+3130000D02*
X-926500Y+3130000D01*
X-1146500Y+2195899D02*
X-1146500Y+1980000D01*
X-1273499Y+1980000D02*
X-1146500Y+1980000D01*
D11*
X+1154261Y+1800000D02*
X+1000000Y+1800000D01*
X+1000000Y+2217639D01*
X+943800Y+2217639D01*
X+943800Y+2602137D01*
X+763800Y+2782137D01*
X+763800Y+2908442D01*
X+747780Y+2981639D01*
X+746830Y+2982589D01*
X+746830Y+3037439D01*
X+576652Y+3037439D01*
X+576652Y+2982589D01*
X+575702Y+2981639D01*
X+575702Y+2910361D01*
X+576652Y+2908412D01*
X+576652Y+2854561D01*
X+591722Y+2854561D01*
X+591722Y+2710863D01*
X+771722Y+2530863D01*
X+771722Y+2217639D01*
X+693800Y+2217639D01*
X+693800Y+2452137D01*
X+563800Y+2582137D01*
X+563800Y+2898565D01*
X+559820Y+2981639D01*
X+558870Y+2982589D01*
X+558870Y+3037439D01*
X+388692Y+3037439D01*
X+388692Y+2982589D01*
X+387742Y+2981639D01*
X+387742Y+2910361D01*
X+388692Y+2905461D01*
X+388692Y+2854561D01*
X+391722Y+2854561D01*
X+391722Y+2510863D01*
X+521722Y+2380863D01*
X+521722Y+2217639D01*
X+205522Y+2217639D01*
X+205522Y+1800000D01*
X+11261Y+1800000D01*
X+11261Y+3286500D01*
X+1154261Y+3286500D01*
X+1154261Y+1800000D01*
X+652850Y+3045061D02*
X+482672Y+3045061D01*
X+482672Y+3227939D01*
X+652850Y+3227939D01*
X+652850Y+3045061D01*
D12*
X+567761Y+3212699D02*
X+567761Y+3136500D01*
X+497912Y+3136500D02*
X+567761Y+3136500D01*
X+567761Y+3060301D02*
X+567761Y+3136500D01*
X+637610Y+3136500D02*
X+567761Y+3136500D01*
X+347761Y+2202399D02*
X+347761Y+1986500D01*
X+220762Y+1986500D02*
X+347761Y+1986500D01*
D11*
X+2630000Y+1803500D02*
X+2475739Y+1803500D01*
X+2475739Y+2221139D01*
X+2419539Y+2221139D01*
X+2419539Y+2605637D01*
X+2239539Y+2785637D01*
X+2239539Y+2911942D01*
X+2223519Y+2985139D01*
X+2222569Y+2986089D01*
X+2222569Y+3040939D01*
X+2052391Y+3040939D01*
X+2052391Y+2986089D01*
X+2051441Y+2985139D01*
X+2051441Y+2913861D01*
X+2052391Y+2911912D01*
X+2052391Y+2858061D01*
X+2067461Y+2858061D01*
X+2067461Y+2714363D01*
X+2247461Y+2534363D01*
X+2247461Y+2221139D01*
X+2169539Y+2221139D01*
X+2169539Y+2455637D01*
X+2039539Y+2585637D01*
X+2039539Y+2902065D01*
X+2035559Y+2985139D01*
X+2034609Y+2986089D01*
X+2034609Y+3040939D01*
X+1864431Y+3040939D01*
X+1864431Y+2986089D01*
X+1863481Y+2985139D01*
X+1863481Y+2913861D01*
X+1864431Y+2908961D01*
X+1864431Y+2858061D01*
X+1867461Y+2858061D01*
X+1867461Y+2514363D01*
X+1997461Y+2384363D01*
X+1997461Y+2221139D01*
X+1681261Y+2221139D01*
X+1681261Y+1803500D01*
X+1487000Y+1803500D01*
X+1487000Y+3290000D01*
X+2630000Y+3290000D01*
X+2630000Y+1803500D01*
X+2128589Y+3048561D02*
X+1958411Y+3048561D01*
X+1958411Y+3231439D01*
X+2128589Y+3231439D01*
X+2128589Y+3048561D01*
D12*
X+2043500Y+3216199D02*
X+2043500Y+3140000D01*
X+1973651Y+3140000D02*
X+2043500Y+3140000D01*
X+2043500Y+3063801D02*
X+2043500Y+3140000D01*
X+2113349Y+3140000D02*
X+2043500Y+3140000D01*
X+1823500Y+2205899D02*
X+1823500Y+1990000D01*
X+1696501Y+1990000D02*
X+1823500Y+1990000D01*
D11*
X+4124261Y+1810000D02*
X+3970000Y+1810000D01*
X+3970000Y+2227639D01*
X+3913800Y+2227639D01*
X+3913800Y+2612137D01*
X+3733800Y+2792137D01*
X+3733800Y+2918442D01*
X+3717780Y+2991639D01*
X+3716830Y+2992589D01*
X+3716830Y+3047439D01*
X+3546652Y+3047439D01*
X+3546652Y+2992589D01*
X+3545702Y+2991639D01*
X+3545702Y+2920361D01*
X+3546652Y+2918412D01*
X+3546652Y+2864561D01*
X+3561722Y+2864561D01*
X+3561722Y+2720863D01*
X+3741722Y+2540863D01*
X+3741722Y+2227639D01*
X+3663800Y+2227639D01*
X+3663800Y+2462137D01*
X+3533800Y+2592137D01*
X+3533800Y+2908565D01*
X+3529820Y+2991639D01*
X+3528870Y+2992589D01*
X+3528870Y+3047439D01*
X+3358692Y+3047439D01*
X+3358692Y+2992589D01*
X+3357742Y+2991639D01*
X+3357742Y+2920361D01*
X+3358692Y+2915461D01*
X+3358692Y+2864561D01*
X+3361722Y+2864561D01*
X+3361722Y+2520863D01*
X+3491722Y+2390863D01*
X+3491722Y+2227639D01*
X+3175522Y+2227639D01*
X+3175522Y+1810000D01*
X+2981261Y+1810000D01*
X+2981261Y+3296500D01*
X+4124261Y+3296500D01*
X+4124261Y+1810000D01*
X+3622850Y+3055061D02*
X+3452672Y+3055061D01*
X+3452672Y+3237939D01*
X+3622850Y+3237939D01*
X+3622850Y+3055061D01*
D12*
X+3537761Y+3222699D02*
X+3537761Y+3146500D01*
X+3467912Y+3146500D02*
X+3537761Y+3146500D01*
X+3537761Y+3070301D02*
X+3537761Y+3146500D01*
X+3607610Y+3146500D02*
X+3537761Y+3146500D01*
X+3317761Y+2212399D02*
X+3317761Y+1996500D01*
X+3190762Y+1996500D02*
X+3317761Y+1996500D01*
D11*
X+5564261Y+1800000D02*
X+5410000Y+1800000D01*
X+5410000Y+2217639D01*
X+5353800Y+2217639D01*
X+5353800Y+2602137D01*
X+5173800Y+2782137D01*
X+5173800Y+2908442D01*
X+5157780Y+2981639D01*
X+5156830Y+2982589D01*
X+5156830Y+3037439D01*
X+4986652Y+3037439D01*
X+4986652Y+2982589D01*
X+4985702Y+2981639D01*
X+4985702Y+2910361D01*
X+4986652Y+2908412D01*
X+4986652Y+2854561D01*
X+5001722Y+2854561D01*
X+5001722Y+2710863D01*
X+5181722Y+2530863D01*
X+5181722Y+2217639D01*
X+5103800Y+2217639D01*
X+5103800Y+2452137D01*
X+4973800Y+2582137D01*
X+4973800Y+2898565D01*
X+4969820Y+2981639D01*
X+4968870Y+2982589D01*
X+4968870Y+3037439D01*
X+4798692Y+3037439D01*
X+4798692Y+2982589D01*
X+4797742Y+2981639D01*
X+4797742Y+2910361D01*
X+4798692Y+2905461D01*
X+4798692Y+2854561D01*
X+4801722Y+2854561D01*
X+4801722Y+2510863D01*
X+4931722Y+2380863D01*
X+4931722Y+2217639D01*
X+4615522Y+2217639D01*
X+4615522Y+1800000D01*
X+4421261Y+1800000D01*
X+4421261Y+3286500D01*
X+5564261Y+3286500D01*
X+5564261Y+1800000D01*
X+5062850Y+3045061D02*
X+4892672Y+3045061D01*
X+4892672Y+3227939D01*
X+5062850Y+3227939D01*
X+5062850Y+3045061D01*
D12*
X+4977761Y+3212699D02*
X+4977761Y+3136500D01*
X+4907912Y+3136500D02*
X+4977761Y+3136500D01*
X+4977761Y+3060301D02*
X+4977761Y+3136500D01*
X+5047610Y+3136500D02*
X+4977761Y+3136500D01*
X+4757761Y+2202399D02*
X+4757761Y+1986500D01*
X+4630762Y+1986500D02*
X+4757761Y+1986500D01*
D11*
X-350000Y-146500D02*
X-504261Y-146500D01*
X-504261Y+271139D01*
X-560461Y+271139D01*
X-560461Y+655637D01*
X-740461Y+835637D01*
X-740461Y+961942D01*
X-756481Y+1035139D01*
X-757431Y+1036089D01*
X-757431Y+1090939D01*
X-927609Y+1090939D01*
X-927609Y+1036089D01*
X-928559Y+1035139D01*
X-928559Y+963861D01*
X-927609Y+961912D01*
X-927609Y+908061D01*
X-912539Y+908061D01*
X-912539Y+764363D01*
X-732539Y+584363D01*
X-732539Y+271139D01*
X-810461Y+271139D01*
X-810461Y+505637D01*
X-940461Y+635637D01*
X-940461Y+952065D01*
X-944441Y+1035139D01*
X-945391Y+1036089D01*
X-945391Y+1090939D01*
X-1115569Y+1090939D01*
X-1115569Y+1036089D01*
X-1116519Y+1035139D01*
X-1116519Y+963861D01*
X-1115569Y+958961D01*
X-1115569Y+908061D01*
X-1112539Y+908061D01*
X-1112539Y+564363D01*
X-982539Y+434363D01*
X-982539Y+271139D01*
X-1298739Y+271139D01*
X-1298739Y-146500D01*
X-1493000Y-146500D01*
X-1493000Y+1340000D01*
X-350000Y+1340000D01*
X-350000Y-146500D01*
X-851411Y+1098561D02*
X-1021589Y+1098561D01*
X-1021589Y+1281439D01*
X-851411Y+1281439D01*
X-851411Y+1098561D01*
D12*
X-936500Y+1266199D02*
X-936500Y+1190000D01*
X-1006349Y+1190000D02*
X-936500Y+1190000D01*
X-936500Y+1113801D02*
X-936500Y+1190000D01*
X-866651Y+1190000D02*
X-936500Y+1190000D01*
X-1156500Y+255899D02*
X-1156500Y+40000D01*
X-1283499Y+40000D02*
X-1156500Y+40000D01*
D11*
X+1144261Y-140000D02*
X+990000Y-140000D01*
X+990000Y+277639D01*
X+933800Y+277639D01*
X+933800Y+662137D01*
X+753800Y+842137D01*
X+753800Y+968442D01*
X+737780Y+1041639D01*
X+736830Y+1042589D01*
X+736830Y+1097439D01*
X+566652Y+1097439D01*
X+566652Y+1042589D01*
X+565702Y+1041639D01*
X+565702Y+970361D01*
X+566652Y+968412D01*
X+566652Y+914561D01*
X+581722Y+914561D01*
X+581722Y+770863D01*
X+761722Y+590863D01*
X+761722Y+277639D01*
X+683800Y+277639D01*
X+683800Y+512137D01*
X+553800Y+642137D01*
X+553800Y+958565D01*
X+549820Y+1041639D01*
X+548870Y+1042589D01*
X+548870Y+1097439D01*
X+378692Y+1097439D01*
X+378692Y+1042589D01*
X+377742Y+1041639D01*
X+377742Y+970361D01*
X+378692Y+965461D01*
X+378692Y+914561D01*
X+381722Y+914561D01*
X+381722Y+570863D01*
X+511722Y+440863D01*
X+511722Y+277639D01*
X+195522Y+277639D01*
X+195522Y-140000D01*
X+1261Y-140000D01*
X+1261Y+1346500D01*
X+1144261Y+1346500D01*
X+1144261Y-140000D01*
X+642850Y+1105061D02*
X+472672Y+1105061D01*
X+472672Y+1287939D01*
X+642850Y+1287939D01*
X+642850Y+1105061D01*
D12*
X+557761Y+1272699D02*
X+557761Y+1196500D01*
X+487912Y+1196500D02*
X+557761Y+1196500D01*
X+557761Y+1120301D02*
X+557761Y+1196500D01*
X+627610Y+1196500D02*
X+557761Y+1196500D01*
X+337761Y+262399D02*
X+337761Y+46500D01*
X+210762Y+46500D02*
X+337761Y+46500D01*
D11*
X+2620000Y-136500D02*
X+2465739Y-136500D01*
X+2465739Y+281139D01*
X+2409539Y+281139D01*
X+2409539Y+665637D01*
X+2229539Y+845637D01*
X+2229539Y+971942D01*
X+2213519Y+1045139D01*
X+2212569Y+1046089D01*
X+2212569Y+1100939D01*
X+2042391Y+1100939D01*
X+2042391Y+1046089D01*
X+2041441Y+1045139D01*
X+2041441Y+973861D01*
X+2042391Y+971912D01*
X+2042391Y+918061D01*
X+2057461Y+918061D01*
X+2057461Y+774363D01*
X+2237461Y+594363D01*
X+2237461Y+281139D01*
X+2159539Y+281139D01*
X+2159539Y+515637D01*
X+2029539Y+645637D01*
X+2029539Y+962065D01*
X+2025559Y+1045139D01*
X+2024609Y+1046089D01*
X+2024609Y+1100939D01*
X+1854431Y+1100939D01*
X+1854431Y+1046089D01*
X+1853481Y+1045139D01*
X+1853481Y+973861D01*
X+1854431Y+968961D01*
X+1854431Y+918061D01*
X+1857461Y+918061D01*
X+1857461Y+574363D01*
X+1987461Y+444363D01*
X+1987461Y+281139D01*
X+1671261Y+281139D01*
X+1671261Y-136500D01*
X+1477000Y-136500D01*
X+1477000Y+1350000D01*
X+2620000Y+1350000D01*
X+2620000Y-136500D01*
X+2118589Y+1108561D02*
X+1948411Y+1108561D01*
X+1948411Y+1291439D01*
X+2118589Y+1291439D01*
X+2118589Y+1108561D01*
D12*
X+2033500Y+1276199D02*
X+2033500Y+1200000D01*
X+1963651Y+1200000D02*
X+2033500Y+1200000D01*
X+2033500Y+1123801D02*
X+2033500Y+1200000D01*
X+2103349Y+1200000D02*
X+2033500Y+1200000D01*
X+1813500Y+265899D02*
X+1813500Y+50000D01*
X+1686501Y+50000D02*
X+1813500Y+50000D01*
D11*
X+4114261Y-130000D02*
X+3960000Y-130000D01*
X+3960000Y+287639D01*
X+3903800Y+287639D01*
X+3903800Y+672137D01*
X+3723800Y+852137D01*
X+3723800Y+978442D01*
X+3707780Y+1051639D01*
X+3706830Y+1052589D01*
X+3706830Y+1107439D01*
X+3536652Y+1107439D01*
X+3536652Y+1052589D01*
X+3535702Y+1051639D01*
X+3535702Y+980361D01*
X+3536652Y+978412D01*
X+3536652Y+924561D01*
X+3551722Y+924561D01*
X+3551722Y+780863D01*
X+3731722Y+600863D01*
X+3731722Y+287639D01*
X+3653800Y+287639D01*
X+3653800Y+522137D01*
X+3523800Y+652137D01*
X+3523800Y+968565D01*
X+3519820Y+1051639D01*
X+3518870Y+1052589D01*
X+3518870Y+1107439D01*
X+3348692Y+1107439D01*
X+3348692Y+1052589D01*
X+3347742Y+1051639D01*
X+3347742Y+980361D01*
X+3348692Y+975461D01*
X+3348692Y+924561D01*
X+3351722Y+924561D01*
X+3351722Y+580863D01*
X+3481722Y+450863D01*
X+3481722Y+287639D01*
X+3165522Y+287639D01*
X+3165522Y-130000D01*
X+2971261Y-130000D01*
X+2971261Y+1356500D01*
X+4114261Y+1356500D01*
X+4114261Y-130000D01*
X+3612850Y+1115061D02*
X+3442672Y+1115061D01*
X+3442672Y+1297939D01*
X+3612850Y+1297939D01*
X+3612850Y+1115061D01*
D12*
X+3527761Y+1282699D02*
X+3527761Y+1206500D01*
X+3457912Y+1206500D02*
X+3527761Y+1206500D01*
X+3527761Y+1130301D02*
X+3527761Y+1206500D01*
X+3597610Y+1206500D02*
X+3527761Y+1206500D01*
X+3307761Y+272399D02*
X+3307761Y+56500D01*
X+3180762Y+56500D02*
X+3307761Y+56500D01*
D11*
X+5554261Y-140000D02*
X+5400000Y-140000D01*
X+5400000Y+277639D01*
X+5343800Y+277639D01*
X+5343800Y+662137D01*
X+5163800Y+842137D01*
X+5163800Y+968442D01*
X+5147780Y+1041639D01*
X+5146830Y+1042589D01*
X+5146830Y+1097439D01*
X+4976652Y+1097439D01*
X+4976652Y+1042589D01*
X+4975702Y+1041639D01*
X+4975702Y+970361D01*
X+4976652Y+968412D01*
X+4976652Y+914561D01*
X+4991722Y+914561D01*
X+4991722Y+770863D01*
X+5171722Y+590863D01*
X+5171722Y+277639D01*
X+5093800Y+277639D01*
X+5093800Y+512137D01*
X+4963800Y+642137D01*
X+4963800Y+958565D01*
X+4959820Y+1041639D01*
X+4958870Y+1042589D01*
X+4958870Y+1097439D01*
X+4788692Y+1097439D01*
X+4788692Y+1042589D01*
X+4787742Y+1041639D01*
X+4787742Y+970361D01*
X+4788692Y+965461D01*
X+4788692Y+914561D01*
X+4791722Y+914561D01*
X+4791722Y+570863D01*
X+4921722Y+440863D01*
X+4921722Y+277639D01*
X+4605522Y+277639D01*
X+4605522Y-140000D01*
X+4411261Y-140000D01*
X+4411261Y+1346500D01*
X+5554261Y+1346500D01*
X+5554261Y-140000D01*
X+5052850Y+1105061D02*
X+4882672Y+1105061D01*
X+4882672Y+1287939D01*
X+5052850Y+1287939D01*
X+5052850Y+1105061D01*
D12*
X+4967761Y+1272699D02*
X+4967761Y+1196500D01*
X+4897912Y+1196500D02*
X+4967761Y+1196500D01*
X+4967761Y+1120301D02*
X+4967761Y+1196500D01*
X+5037610Y+1196500D02*
X+4967761Y+1196500D01*
X+4747761Y+262399D02*
X+4747761Y+46500D01*
X+4620762Y+46500D02*
X+4747761Y+46500D01*
D13*
X-916500Y+8860000D03*
X-1010480Y+8669500D03*
X-822520Y+8669500D03*
D14*
X-626500Y+7710000D03*
X-882500Y+7710000D03*
X-1136500Y+7710000D03*
D13*
X+577761Y+8866500D03*
X+483781Y+8676000D03*
X+671741Y+8676000D03*
D14*
X+867761Y+7716500D03*
X+611761Y+7716500D03*
X+357761Y+7716500D03*
D13*
X+2053500Y+8870000D03*
X+1959520Y+8679500D03*
X+2147480Y+8679500D03*
D14*
X+2343500Y+7720000D03*
X+2087500Y+7720000D03*
X+1833500Y+7720000D03*
D13*
X+3547761Y+8876500D03*
X+3453781Y+8686000D03*
X+3641741Y+8686000D03*
D14*
X+3837761Y+7726500D03*
X+3581761Y+7726500D03*
X+3327761Y+7726500D03*
D13*
X+4987761Y+8866500D03*
X+4893781Y+8676000D03*
X+5081741Y+8676000D03*
D14*
X+5277761Y+7716500D03*
X+5021761Y+7716500D03*
X+4767761Y+7716500D03*
D13*
X-916500Y+6960000D03*
X-1010480Y+6769500D03*
X-822520Y+6769500D03*
D14*
X-626500Y+5810000D03*
X-882500Y+5810000D03*
X-1136500Y+5810000D03*
D13*
X+577761Y+6966500D03*
X+483781Y+6776000D03*
X+671741Y+6776000D03*
D14*
X+867761Y+5816500D03*
X+611761Y+5816500D03*
X+357761Y+5816500D03*
D13*
X+2053500Y+6970000D03*
X+1959520Y+6779500D03*
X+2147480Y+6779500D03*
D14*
X+2343500Y+5820000D03*
X+2087500Y+5820000D03*
X+1833500Y+5820000D03*
D13*
X+3547761Y+6976500D03*
X+3453781Y+6786000D03*
X+3641741Y+6786000D03*
D14*
X+3837761Y+5826500D03*
X+3581761Y+5826500D03*
X+3327761Y+5826500D03*
D13*
X+4987761Y+6966500D03*
X+4893781Y+6776000D03*
X+5081741Y+6776000D03*
D14*
X+5277761Y+5816500D03*
X+5021761Y+5816500D03*
X+4767761Y+5816500D03*
D13*
X-936500Y+5050000D03*
X-1030480Y+4859500D03*
X-842520Y+4859500D03*
D14*
X-646500Y+3900000D03*
X-902500Y+3900000D03*
X-1156500Y+3900000D03*
D13*
X+557761Y+5056500D03*
X+463781Y+4866000D03*
X+651741Y+4866000D03*
D14*
X+847761Y+3906500D03*
X+591761Y+3906500D03*
X+337761Y+3906500D03*
D13*
X+2033500Y+5060000D03*
X+1939520Y+4869500D03*
X+2127480Y+4869500D03*
D14*
X+2323500Y+3910000D03*
X+2067500Y+3910000D03*
X+1813500Y+3910000D03*
D13*
X+3527761Y+5066500D03*
X+3433781Y+4876000D03*
X+3621741Y+4876000D03*
D14*
X+3817761Y+3916500D03*
X+3561761Y+3916500D03*
X+3307761Y+3916500D03*
D13*
X+4967761Y+5056500D03*
X+4873781Y+4866000D03*
X+5061741Y+4866000D03*
D14*
X+5257761Y+3906500D03*
X+5001761Y+3906500D03*
X+4747761Y+3906500D03*
D13*
X-926500Y+3130000D03*
X-1020480Y+2939500D03*
X-832520Y+2939500D03*
D14*
X-636500Y+1980000D03*
X-892500Y+1980000D03*
X-1146500Y+1980000D03*
D13*
X+567761Y+3136500D03*
X+473781Y+2946000D03*
X+661741Y+2946000D03*
D14*
X+857761Y+1986500D03*
X+601761Y+1986500D03*
X+347761Y+1986500D03*
D13*
X+2043500Y+3140000D03*
X+1949520Y+2949500D03*
X+2137480Y+2949500D03*
D14*
X+2333500Y+1990000D03*
X+2077500Y+1990000D03*
X+1823500Y+1990000D03*
D13*
X+3537761Y+3146500D03*
X+3443781Y+2956000D03*
X+3631741Y+2956000D03*
D14*
X+3827761Y+1996500D03*
X+3571761Y+1996500D03*
X+3317761Y+1996500D03*
D13*
X+4977761Y+3136500D03*
X+4883781Y+2946000D03*
X+5071741Y+2946000D03*
D14*
X+5267761Y+1986500D03*
X+5011761Y+1986500D03*
X+4757761Y+1986500D03*
D13*
X-936500Y+1190000D03*
X-1030480Y+999500D03*
X-842520Y+999500D03*
D14*
X-646500Y+40000D03*
X-902500Y+40000D03*
X-1156500Y+40000D03*
D13*
X+557761Y+1196500D03*
X+463781Y+1006000D03*
X+651741Y+1006000D03*
D14*
X+847761Y+46500D03*
X+591761Y+46500D03*
X+337761Y+46500D03*
D13*
X+2033500Y+1200000D03*
X+1939520Y+1009500D03*
X+2127480Y+1009500D03*
D14*
X+2323500Y+50000D03*
X+2067500Y+50000D03*
X+1813500Y+50000D03*
D13*
X+3527761Y+1206500D03*
X+3433781Y+1016000D03*
X+3621741Y+1016000D03*
D14*
X+3817761Y+56500D03*
X+3561761Y+56500D03*
X+3307761Y+56500D03*
D13*
X+4967761Y+1196500D03*
X+4873781Y+1006000D03*
X+5061741Y+1006000D03*
D14*
X+5257761Y+46500D03*
X+5001761Y+46500D03*
X+4747761Y+46500D03*
D15*
X-1536500Y+7460000D02*
X-266500Y+7460000D01*
X-266500Y+9090000D01*
X-1536500Y+9090000D01*
X-1536500Y+7460000D01*
X-42239Y+7466500D02*
X+1227761Y+7466500D01*
X+1227761Y+9096500D01*
X-42239Y+9096500D01*
X-42239Y+7466500D01*
X+1433500Y+7470000D02*
X+2703500Y+7470000D01*
X+2703500Y+9100000D01*
X+1433500Y+9100000D01*
X+1433500Y+7470000D01*
X+2927761Y+7476500D02*
X+4197761Y+7476500D01*
X+4197761Y+9106500D01*
X+2927761Y+9106500D01*
X+2927761Y+7476500D01*
X+4367761Y+7466500D02*
X+5637761Y+7466500D01*
X+5637761Y+9096500D01*
X+4367761Y+9096500D01*
X+4367761Y+7466500D01*
X-1536500Y+5560000D02*
X-266500Y+5560000D01*
X-266500Y+7190000D01*
X-1536500Y+7190000D01*
X-1536500Y+5560000D01*
X-42239Y+5566500D02*
X+1227761Y+5566500D01*
X+1227761Y+7196500D01*
X-42239Y+7196500D01*
X-42239Y+5566500D01*
X+1433500Y+5570000D02*
X+2703500Y+5570000D01*
X+2703500Y+7200000D01*
X+1433500Y+7200000D01*
X+1433500Y+5570000D01*
X+2927761Y+5576500D02*
X+4197761Y+5576500D01*
X+4197761Y+7206500D01*
X+2927761Y+7206500D01*
X+2927761Y+5576500D01*
X+4367761Y+5566500D02*
X+5637761Y+5566500D01*
X+5637761Y+7196500D01*
X+4367761Y+7196500D01*
X+4367761Y+5566500D01*
X-1556500Y+3650000D02*
X-286500Y+3650000D01*
X-286500Y+5280000D01*
X-1556500Y+5280000D01*
X-1556500Y+3650000D01*
X-62239Y+3656500D02*
X+1207761Y+3656500D01*
X+1207761Y+5286500D01*
X-62239Y+5286500D01*
X-62239Y+3656500D01*
X+1413500Y+3660000D02*
X+2683500Y+3660000D01*
X+2683500Y+5290000D01*
X+1413500Y+5290000D01*
X+1413500Y+3660000D01*
X+2907761Y+3666500D02*
X+4177761Y+3666500D01*
X+4177761Y+5296500D01*
X+2907761Y+5296500D01*
X+2907761Y+3666500D01*
X+4347761Y+3656500D02*
X+5617761Y+3656500D01*
X+5617761Y+5286500D01*
X+4347761Y+5286500D01*
X+4347761Y+3656500D01*
X-1546500Y+1730000D02*
X-276500Y+1730000D01*
X-276500Y+3360000D01*
X-1546500Y+3360000D01*
X-1546500Y+1730000D01*
X-52239Y+1736500D02*
X+1217761Y+1736500D01*
X+1217761Y+3366500D01*
X-52239Y+3366500D01*
X-52239Y+1736500D01*
X+1423500Y+1740000D02*
X+2693500Y+1740000D01*
X+2693500Y+3370000D01*
X+1423500Y+3370000D01*
X+1423500Y+1740000D01*
X+2917761Y+1746500D02*
X+4187761Y+1746500D01*
X+4187761Y+3376500D01*
X+2917761Y+3376500D01*
X+2917761Y+1746500D01*
X+4357761Y+1736500D02*
X+5627761Y+1736500D01*
X+5627761Y+3366500D01*
X+4357761Y+3366500D01*
X+4357761Y+1736500D01*
X-1556500Y-210000D02*
X-286500Y-210000D01*
X-286500Y+1420000D01*
X-1556500Y+1420000D01*
X-1556500Y-210000D01*
X-62239Y-203500D02*
X+1207761Y-203500D01*
X+1207761Y+1426500D01*
X-62239Y+1426500D01*
X-62239Y-203500D01*
X+1413500Y-200000D02*
X+2683500Y-200000D01*
X+2683500Y+1430000D01*
X+1413500Y+1430000D01*
X+1413500Y-200000D01*
X+2907761Y-193500D02*
X+4177761Y-193500D01*
X+4177761Y+1436500D01*
X+2907761Y+1436500D01*
X+2907761Y-193500D01*
X+4347761Y-203500D02*
X+5617761Y-203500D01*
X+5617761Y+1426500D01*
X+4347761Y+1426500D01*
X+4347761Y-203500D01*
M02*
